<?xml version="1.0" encoding="utf-8"?>
<!-- Generator: Adobe Illustrator 18.0.0, SVG Export Plug-In . SVG Version: 6.00 Build 0)  -->
<!DOCTYPE svg PUBLIC "-//W3C//DTD SVG 1.1//EN" "http://www.w3.org/Graphics/SVG/1.1/DTD/svg11.dtd">
<svg version="1.1" id="Layer_1" xmlns="http://www.w3.org/2000/svg" xmlns:xlink="http://www.w3.org/1999/xlink" x="0px" y="0px"
	 viewBox="0 0 387.6 65.8" enable-background="new 0 0 387.6 65.8" xml:space="preserve">
<g>
	<path fill="#FFFFFF" d="M60.3,55.4c0,2.8,0.7,4.9,3.7,4.9c2.7,0,4.1-1.8,4.1-5v-5.5c0-0.4-0.1-0.7-0.1-1.1c-0.1-0.7-0.8-1-1.7-1.1
		v-0.5h4.6v0.5c-0.9,0.1-1.6,0.4-1.7,1.1c0,0.3-0.1,0.7-0.1,1.1v5.5c0,4.2-2.7,5.8-5.2,5.8c-4.2,0-5.5-2.1-5.5-5.7v-5.9
		c0-1.8,0.1-1.7-1.7-1.9v-0.5H62v0.5c-1.8,0.2-1.7,0.1-1.7,1.9L60.3,55.4L60.3,55.4z"/>
	<path fill="#FFFFFF" d="M82,60.9c-2.4-2.9-4.9-5.8-7.4-8.8v6.7c0,0.3,0.1,0.6,0.1,0.8c0.1,0.5,0.6,0.8,1.6,0.8v0.4h-3.7v-0.4
		c0.7-0.1,1.2-0.3,1.3-0.8c0-0.2,0.1-0.5,0.1-0.8v-7.2c-0.4-0.5-0.9-1-1.8-1v-0.4H75c2.3,2.7,4.6,5.5,6.9,8.3h0v-6.2
		c0-0.3-0.1-0.6-0.1-0.8c-0.1-0.5-0.6-0.8-1.6-0.8v-0.4h3.7v0.4c-0.7,0.1-1.2,0.3-1.3,0.8c0,0.2-0.1,0.5-0.1,0.8v8.6L82,60.9
		L82,60.9z"/>
	<path fill="#FFFFFF" d="M89.8,59c0,1.4-0.1,1.3,1.3,1.5v0.4H87v-0.4c1.4-0.2,1.3-0.1,1.3-1.5v-6.8c0-1.4,0.1-1.3-1.3-1.5v-0.4h4.1
		v0.4c-1.4,0.2-1.3,0.1-1.3,1.5V59z"/>
	<path fill="#FFFFFF" d="M97.6,50.7c-0.8,0-1.4,0.2-0.9,1.7c0.6,1.8,1.5,4.4,2.3,6.7c1-2.3,1.9-4.7,2.8-7c0.4-1,0-1.4-1-1.4v-0.4
		h3.3v0.4c-0.4,0-0.9,0.2-1.3,0.9c-1.3,3.1-2.6,6.2-3.8,9.3h-0.8c-0.9-2.6-2-5.6-2.9-8.1c-0.6-1.6-1-2.1-1.8-2.1v-0.4h4.1L97.6,50.7
		L97.6,50.7z"/>
	<path fill="#FFFFFF" d="M106.3,60.5c1.4-0.2,1.3-0.1,1.3-1.5v-6.8c0-1.4,0.1-1.3-1.3-1.5v-0.4h6.8v2.4h-0.4c-0.2-1.1-0.5-2-1.5-2
		h-2.1v4.3h1.3c1,0,1.4-0.4,1.4-1.3h0.4V57h-0.4c0-0.9-0.4-1.4-1.4-1.4h-1.3V59c0,1.3,0.6,1.4,2,1.4c2.2,0,2.1-0.6,2.8-2.2h0.4
		l-0.5,2.7h-7.5L106.3,60.5L106.3,60.5z"/>
	<path fill="#FFFFFF" d="M116.6,50.3h4.4c1.5,0,3.1,0.8,3.1,2.6c0,1.6-1,2.6-2.1,3.1l1.5,2.3c0.8,1.1,1.6,2.2,2.1,2.5v0.2H124
		c-0.9,0-1.4-1.7-3.2-4.7h-1.4V59c0,1.4-0.1,1.3,1.3,1.5v0.4h-4.1v-0.4c1.4-0.2,1.3-0.1,1.3-1.5v-6.8c0-1.4,0.1-1.3-1.3-1.5
		L116.6,50.3L116.6,50.3z M119.4,55.7h1.3c1.3,0,1.9-1,1.9-2.7c0-1.7-0.9-2.2-2-2.2h-1.2V55.7z"/>
	<path fill="#FFFFFF" d="M133.1,52.5c-0.1-1.1-0.7-1.9-1.9-1.9c-0.9,0-1.7,0.5-1.7,1.6c0,1.1,1.1,1.7,2.6,2.8c1.6,1.2,2.1,2,2.1,3.2
		c0,1.8-1.9,2.8-3.7,2.8c-1,0-1.8-0.2-2.6-0.5c-0.1,0-0.1-0.1-0.1-0.2v-2.2h0.4c0.2,1.7,1.3,2.4,2.4,2.4c1.1,0,2-0.8,2-1.9
		c0-1-0.5-1.8-2.8-3.3c-0.8-0.5-1.8-1.1-1.8-2.8c0-1.4,1.5-2.4,3.3-2.4c0.7,0,1.5,0.1,2.1,0.3c0.1,0,0.1,0.1,0.1,0.2v2
		C133.5,52.5,133.1,52.5,133.1,52.5z"/>
	<path fill="#FFFFFF" d="M139.7,59c0,1.4-0.1,1.3,1.3,1.5v0.4h-4.1v-0.4c1.4-0.2,1.3-0.1,1.3-1.5v-6.8c0-1.4,0.1-1.3-1.3-1.5v-0.4
		h4.1v0.4c-1.4,0.2-1.3,0.1-1.3,1.5V59z"/>
	<path fill="#FFFFFF" d="M148.5,59c0,1.4-0.1,1.3,1.3,1.5v0.4h-4.1v-0.4c1.4-0.2,1.3-0.1,1.3-1.5v-8.2h-1.4c-1.3,0-1.6,0.8-2.1,1.8
		h-0.4l0.4-2.3h8.4l0.4,2.3H152c-0.5-1-0.8-1.8-2.1-1.8h-1.4L148.5,59L148.5,59z"/>
	<path fill="#FFFFFF" d="M156.8,60.5c1.4-0.2,1.3-0.1,1.3-1.5v-2.3l-2.3-4.6c-0.5-1-0.9-1.4-1.6-1.4v-0.4h3.9v0.4
		c-1.2,0-1,0.6-0.7,1.4l1.8,3.8l2.1-3.8c0.5-0.9,0-1.4-0.9-1.4v-0.4h3.1v0.4c-0.4,0-0.8,0.2-1.2,0.9l-2.5,4.6
		c-0.2,0.3-0.2,0.7-0.2,1.1V59c0,1.4-0.1,1.3,1.3,1.5v0.4h-4.1L156.8,60.5L156.8,60.5z"/>
	<path fill="#FFFFFF" d="M170.5,57.3c0-2.6,2.2-6.4,5.5-6.4c2.6,0,3.2,1.8,3.2,3.5c0,2.2-1.7,6.8-5.5,6.8
		C171.2,61.1,170.5,59.1,170.5,57.3z M177.4,53.4c0-2-1.2-2.1-1.6-2.1c-2.1,0-3.5,3.8-3.5,6.4c0,1,0.2,2.9,1.6,2.9
		C176.2,60.6,177.4,56.9,177.4,53.4z"/>
	<path fill="#FFFFFF" d="M189.1,51.5l-0.5,0.4H186c-1,4.7-2.5,10.9-3.7,13.9h-0.9l2.8-13.9h-1.9l0.2-0.8h1.9c1-4.2,4.5-4.6,5.3-4.6
		c0.5,0,1.4,0.1,1.7,0.4l-0.2,1.3l-0.5,0.2c-0.3-0.5-0.9-1.1-1.7-1.1c-1.2,0-2.1,0.8-2.5,2.9l-0.2,0.9h2.9L189.1,51.5z"/>
	<path fill="#FFFFFF" d="M201.1,58.4c0,1.8-0.1,1.7,1.7,1.9v0.5h-5.3v-0.5c1.8-0.2,1.7-0.1,1.7-1.9v-8.9c0-1.8,0.1-1.7-1.7-1.9v-0.5
		h5.2c3.3,0,4.9,1.3,4.9,3.7c0,2.8-2.6,4.4-5.6,4.2v-0.4c2.5,0,3.6-1.4,3.6-3.6c0-2.2-1.1-3.2-3.3-3.2h-1.2L201.1,58.4L201.1,58.4z"
		/>
	<path fill="#FFFFFF" d="M210.2,60.5c1.4-0.2,1.3-0.1,1.3-1.5v-6.8c0-1.4,0.1-1.3-1.3-1.5v-0.4h6.8v2.4h-0.4c-0.2-1.1-0.5-2-1.5-2
		H213v4.3h1.3c1,0,1.4-0.4,1.4-1.3h0.4V57h-0.4c0-0.9-0.4-1.4-1.4-1.4H213V59c0,1.3,0.6,1.4,2,1.4c2.2,0,2.1-0.6,2.8-2.2h0.4
		l-0.5,2.7h-7.5L210.2,60.5L210.2,60.5z"/>
	<path fill="#FFFFFF" d="M230.2,60.9c-2.4-2.9-4.9-5.8-7.4-8.8v6.7c0,0.3,0.1,0.6,0.1,0.8c0.1,0.5,0.6,0.8,1.6,0.8v0.4h-3.7v-0.4
		c0.7-0.1,1.2-0.3,1.3-0.8c0-0.2,0.1-0.5,0.1-0.8v-7.2c-0.4-0.5-0.9-1-1.8-1v-0.4h2.8c2.3,2.7,4.6,5.5,6.9,8.3h0v-6.2
		c0-0.3-0.1-0.6-0.1-0.8c-0.1-0.5-0.6-0.8-1.6-0.8v-0.4h3.7v0.4c-0.7,0.1-1.2,0.3-1.3,0.8c0,0.2-0.1,0.5-0.1,0.8v8.6L230.2,60.9
		L230.2,60.9L230.2,60.9z"/>
	<path fill="#FFFFFF" d="M243.8,60.9c-2.4-2.9-4.9-5.8-7.4-8.8v6.7c0,0.3,0.1,0.6,0.1,0.8c0.1,0.5,0.6,0.8,1.6,0.8v0.4h-3.7v-0.4
		c0.7-0.1,1.2-0.3,1.3-0.8c0-0.2,0.1-0.5,0.1-0.8v-7.2c-0.4-0.5-0.9-1-1.8-1v-0.4h2.8c2.3,2.7,4.6,5.5,6.9,8.3h0v-6.2
		c0-0.3-0.1-0.6-0.1-0.8c-0.1-0.5-0.6-0.8-1.6-0.8v-0.4h3.7v0.4c-0.7,0.1-1.2,0.3-1.3,0.8c0,0.2-0.1,0.5-0.1,0.8v8.6L243.8,60.9
		L243.8,60.9L243.8,60.9z"/>
	<path fill="#FFFFFF" d="M253.7,52.5c-0.1-1.1-0.7-1.9-1.9-1.9c-0.9,0-1.7,0.5-1.7,1.6c0,1.1,1.1,1.7,2.6,2.8c1.6,1.2,2.1,2,2.1,3.2
		c0,1.8-1.9,2.8-3.7,2.8c-1,0-1.8-0.2-2.6-0.5c-0.1,0-0.1-0.1-0.1-0.2v-2.2h0.4c0.2,1.7,1.3,2.4,2.4,2.4c1.1,0,2-0.8,2-1.9
		c0-1-0.5-1.8-2.8-3.3c-0.8-0.5-1.8-1.1-1.8-2.8c0-1.4,1.5-2.4,3.3-2.4c0.7,0,1.5,0.1,2.1,0.3c0.1,0,0.1,0.1,0.1,0.2v2
		C254.1,52.5,253.7,52.5,253.7,52.5z"/>
	<path fill="#FFFFFF" d="M259.8,60.5c1.4-0.2,1.3-0.1,1.3-1.5v-2.3l-2.3-4.6c-0.5-1-0.9-1.4-1.6-1.4v-0.4h3.9v0.4
		c-1.2,0-1,0.6-0.7,1.4l1.8,3.8l2.1-3.8c0.5-0.9,0-1.4-0.9-1.4v-0.4h3.1v0.4c-0.4,0-0.8,0.2-1.2,0.9l-2.5,4.6
		c-0.2,0.3-0.2,0.7-0.2,1.1V59c0,1.4-0.1,1.3,1.3,1.5v0.4h-4.1L259.8,60.5L259.8,60.5z"/>
	<path fill="#FFFFFF" d="M269.1,60.5c1.4-0.2,1.3-0.1,1.3-1.5v-6.8c0-1.4,0.1-1.3-1.3-1.5v-0.4h4.1v0.4c-1.4,0.2-1.3,0.1-1.3,1.5
		v7.1c0,1.1,0.6,1.2,1.9,1.2c2.2,0,2.1-0.6,2.8-2.2h0.4l-0.5,2.7h-7.5V60.5z"/>
	<path fill="#FFFFFF" d="M282.3,50.7c-0.8,0-1.4,0.2-0.9,1.7c0.6,1.8,1.5,4.4,2.3,6.7c1-2.3,1.9-4.7,2.8-7c0.4-1,0-1.4-1-1.4v-0.4
		h3.3v0.4c-0.4,0-0.9,0.2-1.3,0.9c-1.3,3.1-2.6,6.2-3.8,9.3h-0.8c-0.9-2.6-2-5.6-2.9-8.1c-0.6-1.6-1-2.1-1.8-2.1v-0.4h4.1
		L282.3,50.7L282.3,50.7z"/>
	<path fill="#FFFFFF" d="M291.2,57.4l-0.7,2c-0.2,0.6,0.1,1.1,0.8,1.1v0.4h-2.8v-0.4c0.4,0,0.9-0.3,1.1-0.8c0.7-1.3,2.4-6.3,3.7-9.7
		h0.9c1,3.1,2.6,7.7,3.1,9.1c0.3,0.9,0.6,1.3,1.2,1.3v0.4h-3.5v-0.4c1,0,1-0.5,0.8-1.2l-0.7-2H291.2z M294.9,56.8l-1.6-4.9h0
		l-1.8,4.9H294.9z"/>
	<path fill="#FFFFFF" d="M310.1,60.9c-2.4-2.9-4.9-5.8-7.4-8.8v6.7c0,0.3,0.1,0.6,0.1,0.8c0.1,0.5,0.6,0.8,1.6,0.8v0.4h-3.7v-0.4
		c0.7-0.1,1.2-0.3,1.3-0.8c0-0.2,0.1-0.5,0.1-0.8v-7.2c-0.4-0.5-0.9-1-1.8-1v-0.4h2.8c2.3,2.7,4.6,5.5,6.9,8.3h0v-6.2
		c0-0.3-0.1-0.6-0.1-0.8c-0.1-0.5-0.6-0.8-1.6-0.8v-0.4h3.7v0.4c-0.7,0.1-1.2,0.3-1.3,0.8c0,0.2-0.1,0.5-0.1,0.8v8.6L310.1,60.9
		L310.1,60.9L310.1,60.9z"/>
	<path fill="#FFFFFF" d="M317.3,59c0,1.4-0.1,1.3,1.3,1.5v0.4h-4.1v-0.4c1.4-0.2,1.3-0.1,1.3-1.5v-6.8c0-1.4,0.1-1.3-1.3-1.5v-0.4
		h4.1v0.4c-1.4,0.2-1.3,0.1-1.3,1.5V59z"/>
	<path fill="#FFFFFF" d="M323.7,57.4l-0.7,2c-0.2,0.6,0.1,1.1,0.8,1.1v0.4H321v-0.4c0.4,0,0.9-0.3,1.1-0.8c0.7-1.3,2.4-6.3,3.7-9.7
		h0.9c1,3.1,2.6,7.7,3.1,9.1c0.3,0.9,0.6,1.3,1.2,1.3v0.4h-3.5v-0.4c1,0,1-0.5,0.8-1.2l-0.6-2H323.7z M327.3,56.8l-1.6-4.9h0
		l-1.8,4.9H327.3z"/>
</g>
<text transform="matrix(1 0 0 1 3.662109e-04 33.2004)" fill="#FFFFFF" font-family="'AGaramondPro-Regular'" font-size="40">Undergraduate Assembly</text>
</svg>
