<?xml version="1.0" encoding="utf-8"?>
<!-- Generator: Adobe Illustrator 18.1.0, SVG Export Plug-In . SVG Version: 6.00 Build 0)  -->
<!DOCTYPE svg PUBLIC "-//W3C//DTD SVG 1.1//EN" "http://www.w3.org/Graphics/SVG/1.1/DTD/svg11.dtd">
<svg version="1.1" id="Layer_1" xmlns="http://www.w3.org/2000/svg" xmlns:xlink="http://www.w3.org/1999/xlink" x="0px" y="0px"
	 viewBox="1.7 698.8 612 96.9" enable-background="new 1.7 698.8 612 96.9" xml:space="preserve">
<g>
	<path fill="#FFFFFF" d="M95.5,779.3c0,4.4,1.1,7.7,5.8,7.7c4.3,0,6.5-2.8,6.5-7.9v-8.7c0-0.6-0.2-1.1-0.2-1.7
		c-0.2-1.1-1.3-1.6-2.7-1.7v-0.8h7.3v0.8c-1.4,0.2-2.5,0.6-2.7,1.7c0,0.5-0.2,1.1-0.2,1.7v8.7c0,6.6-4.3,9.2-8.2,9.2
		c-6.6,0-8.7-3.3-8.7-9V770c0-2.8,0.2-2.7-2.7-3v-0.8h8.4v0.8c-2.8,0.3-2.7,0.2-2.7,3L95.5,779.3L95.5,779.3z"/>
	<path fill="#FFFFFF" d="M129.9,788c-3.8-4.6-7.7-9.2-11.7-13.9v10.6c0,0.5,0.2,0.9,0.2,1.3c0.2,0.8,0.9,1.3,2.5,1.3v0.6h-5.8v-0.6
		c1.1-0.2,1.9-0.5,2.1-1.3c0-0.3,0.2-0.8,0.2-1.3v-11.4c-0.6-0.8-1.4-1.6-2.8-1.6v-0.6h4.4c3.6,4.3,7.3,8.7,10.9,13.1l0,0v-9.8
		c0-0.5-0.2-0.9-0.2-1.3c-0.2-0.8-0.9-1.3-2.5-1.3v-0.6h5.8v0.6c-1.1,0.2-1.9,0.5-2.1,1.3c0,0.3-0.2,0.8-0.2,1.3V788L129.9,788
		L129.9,788z"/>
	<path fill="#FFFFFF" d="M142.3,785c0,2.2-0.2,2.1,2.1,2.4v0.6h-6.5v-0.6c2.2-0.3,2.1-0.2,2.1-2.4v-10.7c0-2.2,0.2-2.1-2.1-2.4v-0.6
		h6.5v0.6c-2.2,0.3-2.1,0.2-2.1,2.4V785L142.3,785z"/>
	<path fill="#FFFFFF" d="M154.6,771.9c-1.3,0-2.2,0.3-1.4,2.7c0.9,2.8,2.4,6.9,3.6,10.6c1.6-3.6,3-7.4,4.4-11.1
		c0.6-1.6,0-2.2-1.6-2.2v-0.6h5.2v0.6c-0.6,0-1.4,0.3-2.1,1.4c-2.1,4.9-4.1,9.8-6,14.7h-1.3c-1.4-4.1-3.2-8.8-4.6-12.8
		c-0.9-2.5-1.6-3.3-2.8-3.3v-0.6h6.5L154.6,771.9L154.6,771.9z"/>
	<path fill="#FFFFFF" d="M168.3,787.4c2.2-0.3,2.1-0.2,2.1-2.4v-10.7c0-2.2,0.2-2.1-2.1-2.4v-0.6h10.7v3.8h-0.6
		c-0.3-1.7-0.8-3.2-2.4-3.2h-3.3v6.8h2.1c1.6,0,2.2-0.6,2.2-2.1h0.6v5.2h-0.6c0-1.4-0.6-2.2-2.2-2.2h-2.1v5.4c0,2.1,0.9,2.2,3.2,2.2
		c3.5,0,3.3-0.9,4.4-3.5h0.6l-0.8,4.3h-11.8L168.3,787.4L168.3,787.4z"/>
	<path fill="#FFFFFF" d="M184.7,771.3h6.9c2.4,0,4.9,1.3,4.9,4.1c0,2.5-1.6,4.1-3.3,4.9l2.4,3.6c1.3,1.7,2.5,3.5,3.3,3.9v0.3h-2.5
		c-1.4,0-2.2-2.7-5.1-7.4h-2.2v4.3c0,2.2-0.2,2.1,2.1,2.4v0.6h-6.5v-0.6c2.2-0.3,2.1-0.2,2.1-2.4v-10.7c0-2.2,0.2-2.1-2.1-2.4
		L184.7,771.3L184.7,771.3z M189.1,779.8h2.1c2.1,0,3-1.6,3-4.3c0-2.7-1.4-3.5-3.2-3.5h-1.9L189.1,779.8L189.1,779.8z"/>
	<path fill="#FFFFFF" d="M210.9,774.7c-0.2-1.7-1.1-3-3-3c-1.4,0-2.7,0.8-2.7,2.5c0,1.7,1.7,2.7,4.1,4.4c2.5,1.9,3.3,3.2,3.3,5.1
		c0,2.8-3,4.4-5.8,4.4c-1.6,0-2.8-0.3-4.1-0.8c-0.2,0-0.2-0.2-0.2-0.3v-3.5h0.6c0.3,2.7,2.1,3.8,3.8,3.8s3.2-1.3,3.2-3
		c0-1.6-0.8-2.8-4.4-5.2c-1.3-0.8-2.8-1.7-2.8-4.4c0-2.2,2.4-3.8,5.2-3.8c1.1,0,2.4,0.2,3.3,0.5c0.2,0,0.2,0.2,0.2,0.3v3.2
		C211.5,774.7,210.9,774.7,210.9,774.7z"/>
	<path fill="#FFFFFF" d="M221.3,785c0,2.2-0.2,2.1,2.1,2.4v0.6h-6.5v-0.6c2.2-0.3,2.1-0.2,2.1-2.4v-10.7c0-2.2,0.2-2.1-2.1-2.4v-0.6
		h6.5v0.6c-2.2,0.3-2.1,0.2-2.1,2.4V785z"/>
	<path fill="#FFFFFF" d="M235.3,785c0,2.2-0.2,2.1,2.1,2.4v0.6h-6.5v-0.6c2.2-0.3,2.1-0.2,2.1-2.4v-12.9h-2.2
		c-2.1,0-2.5,1.3-3.3,2.8h-0.6l0.6-3.6h13.3l0.6,3.6h-0.6c-0.8-1.6-1.3-2.8-3.3-2.8h-2.2V785L235.3,785z"/>
	<path fill="#FFFFFF" d="M248.4,787.4c2.2-0.3,2.1-0.2,2.1-2.4v-3.6l-3.6-7.3c-0.8-1.6-1.4-2.2-2.5-2.2v-0.6h6.2v0.6
		c-1.9,0-1.6,0.9-1.1,2.2l2.8,6l3.3-6c0.8-1.4,0-2.2-1.4-2.2v-0.6h4.9v0.6c-0.6,0-1.3,0.3-1.9,1.4l-3.9,7.3
		c-0.3,0.5-0.3,1.1-0.3,1.7v2.7c0,2.2-0.2,2.1,2.1,2.4v0.6h-6.5L248.4,787.4L248.4,787.4z"/>
	<path fill="#FFFFFF" d="M270.1,782.3c0-4.1,3.5-10.1,8.7-10.1c4.1,0,5.1,2.8,5.1,5.5c0,3.5-2.7,10.7-8.7,10.7
		C271.2,788.3,270.1,785.2,270.1,782.3z M281,776.2c0-3.2-1.9-3.3-2.5-3.3c-3.3,0-5.5,6-5.5,10.1c0,1.6,0.3,4.6,2.5,4.6
		C279.1,787.5,281,781.7,281,776.2z"/>
	<path fill="#FFFFFF" d="M299.6,773.2l-0.8,0.6h-4.1c-1.6,7.4-3.9,17.3-5.8,22h-1.4l4.4-22h-3l0.3-1.3h3c1.6-6.6,7.1-7.3,8.4-7.3
		c0.8,0,2.2,0.2,2.7,0.6l-0.3,2.1l-0.8,0.3c-0.5-0.8-1.4-1.7-2.7-1.7c-1.9,0-3.3,1.3-3.9,4.6l-0.3,1.4h4.6L299.6,773.2z"/>
	<path fill="#FFFFFF" d="M318.5,784.1c0,2.8-0.2,2.7,2.7,3v0.8h-8.4v-0.8c2.8-0.3,2.7-0.2,2.7-3V770c0-2.8,0.2-2.7-2.7-3v-0.8h8.2
		c5.2,0,7.7,2.1,7.7,5.8c0,4.4-4.1,6.9-8.8,6.6V778c3.9,0,5.7-2.2,5.7-5.7s-1.7-5.1-5.2-5.1h-1.9L318.5,784.1L318.5,784.1z"/>
	<path fill="#FFFFFF" d="M333,787.4c2.2-0.3,2.1-0.2,2.1-2.4v-10.7c0-2.2,0.2-2.1-2.1-2.4v-0.6h10.7v3.8h-0.6
		c-0.3-1.7-0.8-3.2-2.4-3.2h-3.3v6.8h2.1c1.6,0,2.2-0.6,2.2-2.1h0.6v5.2h-0.6c0-1.4-0.6-2.2-2.2-2.2h-2.1v5.4c0,2.1,0.9,2.2,3.2,2.2
		c3.5,0,3.3-0.9,4.4-3.5h0.6l-0.8,4.3H333L333,787.4L333,787.4z"/>
	<path fill="#FFFFFF" d="M364.7,788c-3.8-4.6-7.7-9.2-11.7-13.9v10.6c0,0.5,0.2,0.9,0.2,1.3c0.2,0.8,0.9,1.3,2.5,1.3v0.6h-5.8v-0.6
		c1.1-0.2,1.9-0.5,2.1-1.3c0-0.3,0.2-0.8,0.2-1.3v-11.4c-0.6-0.8-1.4-1.6-2.8-1.6v-0.6h4.4c3.6,4.3,7.3,8.7,10.9,13.1l0,0v-9.8
		c0-0.5-0.2-0.9-0.2-1.3c-0.2-0.8-0.9-1.3-2.5-1.3v-0.6h5.8v0.6c-1.1,0.2-1.9,0.5-2.1,1.3c0,0.3-0.2,0.8-0.2,1.3V788L364.7,788
		L364.7,788L364.7,788z"/>
	<path fill="#FFFFFF" d="M386.2,788c-3.8-4.6-7.7-9.2-11.7-13.9v10.6c0,0.5,0.2,0.9,0.2,1.3c0.2,0.8,0.9,1.3,2.5,1.3v0.6h-5.8v-0.6
		c1.1-0.2,1.9-0.5,2.1-1.3c0-0.3,0.2-0.8,0.2-1.3v-11.4c-0.6-0.8-1.4-1.6-2.8-1.6v-0.6h4.4c3.6,4.3,7.3,8.7,10.9,13.1l0,0v-9.8
		c0-0.5-0.2-0.9-0.2-1.3c-0.2-0.8-0.9-1.3-2.5-1.3v-0.6h5.8v0.6c-1.1,0.2-1.9,0.5-2.1,1.3c0,0.3-0.2,0.8-0.2,1.3V788L386.2,788
		L386.2,788L386.2,788z"/>
	<path fill="#FFFFFF" d="M401.9,774.7c-0.2-1.7-1.1-3-3-3c-1.4,0-2.7,0.8-2.7,2.5c0,1.7,1.7,2.7,4.1,4.4c2.5,1.9,3.3,3.2,3.3,5.1
		c0,2.8-3,4.4-5.8,4.4c-1.6,0-2.8-0.3-4.1-0.8c-0.2,0-0.2-0.2-0.2-0.3v-3.5h0.6c0.3,2.7,2.1,3.8,3.8,3.8c1.7,0,3.2-1.3,3.2-3
		c0-1.6-0.8-2.8-4.4-5.2c-1.3-0.8-2.8-1.7-2.8-4.4c0-2.2,2.4-3.8,5.2-3.8c1.1,0,2.4,0.2,3.3,0.5c0.2,0,0.2,0.2,0.2,0.3v3.2
		C402.5,774.7,401.9,774.7,401.9,774.7z"/>
	<path fill="#FFFFFF" d="M411.5,787.4c2.2-0.3,2.1-0.2,2.1-2.4v-3.6l-3.6-7.3c-0.8-1.6-1.4-2.2-2.5-2.2v-0.6h6.2v0.6
		c-1.9,0-1.6,0.9-1.1,2.2l2.8,6l3.3-6c0.8-1.4,0-2.2-1.4-2.2v-0.6h4.9v0.6c-0.6,0-1.3,0.3-1.9,1.4l-3.9,7.3
		c-0.3,0.5-0.3,1.1-0.3,1.7v2.7c0,2.2-0.2,2.1,2.1,2.4v0.6h-6.5L411.5,787.4L411.5,787.4z"/>
	<path fill="#FFFFFF" d="M426.3,787.4c2.2-0.3,2.1-0.2,2.1-2.4v-10.7c0-2.2,0.2-2.1-2.1-2.4v-0.6h6.5v0.6c-2.2,0.3-2.1,0.2-2.1,2.4
		v11.2c0,1.7,0.9,1.9,3,1.9c3.5,0,3.3-0.9,4.4-3.5h0.6l-0.8,4.3h-11.8v-0.8H426.3z"/>
	<path fill="#FFFFFF" d="M447.2,771.9c-1.3,0-2.2,0.3-1.4,2.7c0.9,2.8,2.4,6.9,3.6,10.6c1.6-3.6,3-7.4,4.4-11.1
		c0.6-1.6,0-2.2-1.6-2.2v-0.6h5.2v0.6c-0.6,0-1.4,0.3-2.1,1.4c-2.1,4.9-4.1,9.8-6,14.7H448c-1.4-4.1-3.2-8.8-4.6-12.8
		c-0.9-2.5-1.6-3.3-2.8-3.3v-0.6h6.5L447.2,771.9L447.2,771.9z"/>
	<path fill="#FFFFFF" d="M461.3,782.5l-1.1,3.2c-0.3,0.9,0.2,1.7,1.3,1.7v0.6h-4.4v-0.6c0.6,0,1.4-0.5,1.7-1.3
		c1.1-2.1,3.8-9.9,5.8-15.4h1.4c1.6,4.9,4.1,12.2,4.9,14.4c0.5,1.4,0.9,2.1,1.9,2.1v0.6h-5.5v-0.6c1.6,0,1.6-0.8,1.3-1.9l-1.1-3.2
		h-6.2L461.3,782.5L461.3,782.5z M467.1,781.5l-2.5-7.7l0,0l-2.8,7.7H467.1z"/>
	<path fill="#FFFFFF" d="M491.2,788c-3.8-4.6-7.7-9.2-11.7-13.9v10.6c0,0.5,0.2,0.9,0.2,1.3c0.2,0.8,0.9,1.3,2.5,1.3v0.6h-5.8v-0.6
		c1.1-0.2,1.9-0.5,2.1-1.3c0-0.3,0.2-0.8,0.2-1.3v-11.4c-0.6-0.8-1.4-1.6-2.8-1.6v-0.6h4.4c3.6,4.3,7.3,8.7,10.9,13.1l0,0v-9.8
		c0-0.5-0.2-0.9-0.2-1.3c-0.2-0.8-0.9-1.3-2.5-1.3v-0.6h5.8v0.6c-1.1,0.2-1.9,0.5-2.1,1.3c0,0.3-0.2,0.8-0.2,1.3V788L491.2,788
		L491.2,788L491.2,788z"/>
	<path fill="#FFFFFF" d="M502.6,785c0,2.2-0.2,2.1,2.1,2.4v0.6h-6.5v-0.6c2.2-0.3,2.1-0.2,2.1-2.4v-10.7c0-2.2,0.2-2.1-2.1-2.4v-0.6
		h6.5v0.6c-2.2,0.3-2.1,0.2-2.1,2.4V785z"/>
	<path fill="#FFFFFF" d="M512.8,782.5l-1.1,3.2c-0.3,0.9,0.2,1.7,1.3,1.7v0.6h-4.4v-0.6c0.6,0,1.4-0.5,1.7-1.3
		c1.1-2.1,3.8-9.9,5.8-15.4h1.4c1.6,4.9,4.1,12.2,4.9,14.4c0.5,1.4,0.9,2.1,1.9,2.1v0.6h-5.5v-0.6c1.6,0,1.6-0.8,1.3-1.9l-0.9-3.2
		h-6.3v0.3H512.8L512.8,782.5z M518.5,781.5l-2.5-7.7l0,0l-2.8,7.7H518.5z"/>
</g>
<g enable-background="new    ">
	<path fill="#FFFFFF" d="M38.3,718.2c0-3.9-0.1-11.2-1.2-13.1c-0.4-0.8-1.6-1.2-3.2-1.3l-1.6-0.1c-0.4-0.4-0.3-1.3,0.1-1.5
		c2.4,0.1,4.7,0.2,7.2,0.2c2.7,0,4.4-0.1,6.6-0.2c0.5,0.3,0.4,1.1,0.1,1.5l-1.5,0.1c-1.6,0.1-2.8,0.7-3.2,1.5
		c-0.9,2.1-0.9,9.3-0.9,12.9v7.1c0,5.5-0.9,11.3-4.4,15.1c-2.7,3-7.4,4.6-12.1,4.6c-4.4,0-8.7-0.8-11.8-3.5
		c-3.3-2.8-4.9-7.4-4.9-14.9v-14.9c0-6.6-0.1-7.6-3.8-8L2,703.6c-0.4-0.3-0.3-1.3,0.1-1.5c3.2,0.1,5.3,0.2,7.8,0.2
		c2.6,0,4.7-0.1,7.8-0.2c0.4,0.2,0.5,1.3,0.1,1.5l-1.5,0.1c-3.7,0.3-3.8,1.4-3.8,8v13.6c0,10.2,3.2,17,12.8,17
		c9.2,0,12.6-7.2,12.6-16.9v-7.2H38.3z"/>
	<path fill="#FFFFFF" d="M51.2,725.9c0-2.5,0-2.8-1.7-3.9l-0.6-0.4c-0.3-0.3-0.3-0.9,0.1-1.1c1.5-0.5,5.1-2.1,6.3-3.1
		c0.3,0,0.6,0.1,0.7,0.4c-0.1,1.5-0.1,2.4-0.1,3c0,0.4,0.3,0.7,0.7,0.7c2.7-1.6,5.6-3.2,8.8-3.2c5.2,0,7.4,3.6,7.4,7.8v10.9
		c0,4.5,0.1,5.2,2.4,5.5l1.4,0.2c0.4,0.3,0.3,1.4-0.1,1.6c-1.9-0.1-3.7-0.2-5.9-0.2c-2.3,0-4.2,0.1-5.9,0.2
		c-0.4-0.2-0.6-1.3-0.1-1.6l1.2-0.2c2.3-0.4,2.4-0.9,2.4-5.5v-9.4c0-3.6-1.6-6.3-5.9-6.3c-2.4,0-4.5,1-5.4,2.2
		c-0.8,1.1-0.9,2-0.9,3.8v9.7c0,4.5,0.1,5.1,2.4,5.5l1.1,0.2c0.4,0.3,0.3,1.4-0.1,1.6c-1.7-0.1-3.5-0.2-5.7-0.2
		c-2.3,0-4.2,0.1-5.9,0.2c-0.4-0.2-0.6-1.3-0.1-1.6l1.3-0.2c2.3-0.3,2.4-0.9,2.4-5.5v-11.1H51.2L51.2,725.9z"/>
	<path fill="#FFFFFF" d="M105.1,735c0,5,0.1,7.3,1.8,7.3c0.7,0,1.8-0.3,2.7-0.6c0.4,0.1,0.5,1.7-0.1,2c-2.7,0.4-6.6,1.3-8.3,2
		c-0.4,0-0.7-0.2-0.7-0.5v-1.1c0-0.9,0-1.7-0.1-2h-0.3c-2.8,1.9-4.9,2.9-8,2.9c-7,0-11.7-5.5-11.7-12.1c0-8.8,6.7-14.5,15.4-14.5
		c2.1,0,3.5,0.3,4.2,0.6c0.3,0,0.4-0.4,0.4-0.9v-9.5c0-3.7-0.1-4.1-2-5.2l-0.6-0.4c-0.3-0.2-0.3-1.1,0-1.3c1.6-0.5,4.5-1.5,6.8-2.7
		c0.3,0,0.5,0.1,0.6,0.4c-0.1,1.9-0.2,5.1-0.2,7.8V735L105.1,735L105.1,735z M100.4,725.4c0-1.3-0.3-1.8-0.7-2.5
		c-0.9-1.3-2.8-2.7-5.3-2.7c-5.7,0-8.7,5-8.7,10.5c0,5.7,3.2,11.2,9.4,11.2c1.7,0,3.9-0.8,4.9-1.8c0.4-0.4,0.4-1.3,0.4-2.3
		C100.4,737.9,100.4,725.4,100.4,725.4z"/>
	<path fill="#FFFFFF" d="M118.8,727.9c-1.6,0-1.7,0.1-1.7,1.7c0,6.4,3.7,11.8,10.5,11.8c2.1,0,3.9-0.6,5.8-3.1
		c0.6-0.2,1.1,0.2,1.1,0.8c-2.1,4.3-6.6,5.9-9.9,5.9c-4.1,0-7.3-1.8-9.2-4.2c-1.9-2.5-2.7-5.4-2.7-8.2c0-7.8,5.1-14.3,12.7-14.3
		c5.4,0,9,3.7,9,7.5c0,0.9-0.1,1.4-0.3,1.6c-0.2,0.4-1.1,0.4-3.7,0.4h-11.6V727.9z M122.7,726c4.7,0,6.1-0.3,6.6-0.6
		c0.2-0.1,0.4-0.4,0.4-1.2c0-1.8-1.2-4-4.9-4c-3.7,0-6.9,3.4-7,5.5c0,0.1,0,0.3,0.4,0.3L122.7,726L122.7,726z"/>
	<path fill="#FFFFFF" d="M141.8,725.9c0-2.5,0-2.8-1.7-3.9l-0.6-0.4c-0.3-0.3-0.3-0.9,0.1-1.1c1.5-0.5,4.8-2.1,6.4-3.1
		c0.3,0.1,0.5,0.2,0.5,0.4v3.7c0,0.3,0.1,0.5,0.2,0.6c2.2-1.8,4.6-3.8,6.9-3.8c1.6,0,2.8,1,2.8,2.5c0,2.1-1.7,2.9-2.7,2.9
		c-0.6,0-0.9-0.2-1.4-0.4c-0.9-0.6-1.9-1-2.8-1c-1,0-1.8,0.6-2.3,1.3c-0.6,0.9-0.8,2.7-0.8,4.9v8.6c0,4.5,0.1,5.3,2.5,5.5l2.3,0.2
		c0.4,0.3,0.3,1.4-0.1,1.6c-3-0.1-4.8-0.2-7-0.2c-2.3,0-4.2,0.1-5.8,0.2c-0.4-0.2-0.6-1.3-0.1-1.6l1.2-0.2c2.3-0.4,2.4-0.9,2.4-5.5
		L141.8,725.9L141.8,725.9z"/>
	<path fill="#FFFFFF" d="M184.9,720.6c0.7,0.3,0.6,2.5-0.4,2.6H180c0.1,1.1,0.1,2.1,0.1,3.2c0,4.4-2.6,10-10.6,10
		c-1.1,0-2-0.1-2.8-0.2c-0.8,0.4-2.8,1.6-2.8,3.5c0,1.5,1.5,2.7,4.4,2.7c2.1,0,4.7-0.2,7.5-0.2c3.5,0,8.8,0.6,8.8,6.9
		c0,6.9-7.5,11.9-15.8,11.9c-7.8,0-10.5-4.2-10.5-7.3c0-1,0.3-1.8,0.7-2.3c1.1-1.1,2.8-2.8,4.3-4.2c0.6-0.6,1.1-1.1,0.5-1.5
		c-2.5-0.6-4.6-2.8-4.6-5c0-0.3,0.3-0.6,0.9-1.1c1.1-0.7,2.3-1.8,3.3-2.9c0.3-0.4,0.6-0.9,0.6-1.2c-2.1-1.1-4.7-3.6-4.7-7.6
		c0-5.4,4.7-9.5,10.3-9.5c2.4,0,4.6,0.6,6.1,1.3c2,0.9,2.5,1,3.9,1L184.9,720.6L184.9,720.6z M171.7,746.2c-2,0-4.5,0.1-5.4,0.7
		c-1.5,0.9-3,2.9-3,5.3c0,3.4,2.7,6.3,8.5,6.3c5.6,0,9.3-3.2,9.3-6.8c0-3.9-2.7-5.5-7.2-5.5H171.7z M175.6,728
		c0-4.3-1.8-7.9-5.6-7.9c-3,0-5.3,2.8-5.3,7.1c0,4.5,2.7,7.4,5.7,7.4C173.8,734.7,175.6,731.9,175.6,728z"/>
	<path fill="#FFFFFF" d="M191.1,725.9c0-2.5,0-2.8-1.7-3.9l-0.6-0.4c-0.3-0.3-0.3-0.9,0.1-1.1c1.5-0.5,4.8-2.1,6.4-3.1
		c0.3,0.1,0.5,0.2,0.5,0.4v3.7c0,0.3,0.1,0.5,0.2,0.6c2.2-1.8,4.6-3.8,6.9-3.8c1.6,0,2.8,1,2.8,2.5c0,2.1-1.7,2.9-2.7,2.9
		c-0.6,0-0.9-0.2-1.4-0.4c-0.9-0.6-1.9-1-2.8-1c-1,0-1.8,0.6-2.3,1.3c-0.6,0.9-0.8,2.7-0.8,4.9v8.6c0,4.5,0.1,5.3,2.5,5.5l2.3,0.2
		c0.4,0.3,0.3,1.4-0.1,1.6c-3-0.1-4.8-0.2-7-0.2c-2.3,0-4.2,0.1-5.8,0.2c-0.4-0.2-0.6-1.3-0.1-1.6l1.2-0.2c2.3-0.4,2.4-0.9,2.4-5.5
		L191.1,725.9L191.1,725.9z"/>
	<path fill="#FFFFFF" d="M220.9,731c0.9-0.3,1.1-0.9,1.1-1.8l0.1-2.9c0.1-2.3-0.7-5.5-4.6-5.5c-1.8,0-3.9,0.9-4,2.8
		c-0.1,1-0.1,1.8-0.6,2.1c-0.9,0.8-2.7,1.2-3.6,1.2c-0.6,0-0.9-0.3-0.9-0.9c0-3.3,7.1-7.8,11.7-7.8c4.5,0,6.8,2.7,6.6,7.4l-0.4,11
		c-0.1,2.9,0.4,5.5,2.9,5.5c0.6,0,1.2-0.2,1.6-0.4c0.3-0.2,0.6-0.4,0.8-0.4c0.3,0,0.4,0.4,0.4,0.8c0,0.3-2.2,2.8-5.3,2.8
		c-1.5,0-3-0.6-4.1-2c-0.3-0.4-0.6-0.9-1-0.9s-1.2,0.6-2.5,1.3c-1.4,0.8-2.8,1.6-4.5,1.6c-1.8,0-3.3-0.5-4.4-1.5
		c-1.2-1.1-2-2.7-2-4.4c0-2.5,1.2-3.9,5.2-5.4L220.9,731z M217,742.2c1.3,0,3.2-0.9,3.9-1.6c0.8-0.8,0.8-1.6,0.8-3l0.1-3.7
		c0-0.7-0.3-0.8-0.6-0.8c-0.3,0-1.5,0.3-2.6,0.6c-3.7,1.3-5.6,2.2-5.6,4.7C213,739.5,213.8,742.2,217,742.2z"/>
	<path fill="#FFFFFF" d="M258.4,735c0,5,0.1,7.3,1.8,7.3c0.7,0,1.8-0.3,2.7-0.6c0.4,0.1,0.5,1.7-0.1,2c-2.7,0.4-6.6,1.3-8.3,2
		c-0.4,0-0.7-0.2-0.7-0.5v-1.1c0-0.9,0-1.7-0.1-2h-0.3c-2.8,1.9-4.9,2.9-8,2.9c-7,0-11.7-5.5-11.7-12.1c0-8.8,6.7-14.5,15.4-14.5
		c2.1,0,3.5,0.3,4.2,0.6c0.3,0,0.4-0.4,0.4-0.9v-9.5c0-3.7-0.1-4.1-2-5.2l-0.6-0.4c-0.3-0.2-0.3-1.1,0-1.3c1.6-0.5,4.5-1.5,6.8-2.7
		c0.3,0,0.5,0.1,0.6,0.4c-0.1,1.9-0.2,5.1-0.2,7.8V735L258.4,735L258.4,735z M253.7,725.4c0-1.3-0.3-1.8-0.7-2.5
		c-0.9-1.3-2.8-2.7-5.3-2.7c-5.7,0-8.7,5-8.7,10.5c0,5.7,3.2,11.2,9.4,11.2c1.7,0,3.9-0.8,4.9-1.8c0.4-0.4,0.4-1.3,0.4-2.3
		L253.7,725.4L253.7,725.4z"/>
	<path fill="#FFFFFF" d="M273.9,734.9c0,4.4,1.1,7.3,5.9,7.3c1.7,0,3.7-0.7,5.1-1.9c0.8-0.8,1.3-1.7,1.3-3.7v-10.4
		c0-4.1-0.4-4.2-2.3-5l-0.8-0.3c-0.4-0.3-0.4-1.1,0.1-1.4c2.5-0.1,6-0.5,7.4-1.1c0.3,0.1,0.5,0.2,0.6,0.4c-0.1,1.2-0.2,3.2-0.2,5.5
		v10.6c0,5,0.2,6.9,2,6.9c0.8,0,1.6-0.1,2.5-0.3c0.4,0.3,0.4,1.6-0.1,1.8c-2.5,0.5-6.1,1.1-8.3,2.3c-0.3,0-0.6-0.2-0.8-0.4v-2.5
		c0-0.6-0.2-0.9-0.6-0.9c-1.9,1.2-5,3.3-8.7,3.3c-5.6,0-7.6-2.8-7.6-7.9v-10.5c0-4,0-4.5-1.9-5.4l-0.8-0.3c-0.4-0.3-0.3-1.2,0.1-1.4
		c2.9-0.1,5.4-0.6,6.8-1.1c0.4,0.1,0.6,0.2,0.6,0.4c-0.1,1.1-0.2,2.4-0.2,5.5v10.5H273.9z"/>
	<path fill="#FFFFFF" d="M311.2,731c0.9-0.3,1.1-0.9,1.1-1.8l0.1-2.9c0.1-2.3-0.7-5.5-4.6-5.5c-1.8,0-3.9,0.9-4,2.8
		c-0.1,1-0.1,1.8-0.6,2.1c-0.9,0.8-2.7,1.2-3.6,1.2c-0.6,0-0.9-0.3-0.9-0.9c0-3.3,7.1-7.8,11.7-7.8c4.5,0,6.8,2.7,6.6,7.4l-0.4,11
		c-0.1,2.9,0.4,5.5,2.9,5.5c0.6,0,1.2-0.2,1.6-0.4c0.3-0.2,0.6-0.4,0.8-0.4c0.3,0,0.4,0.4,0.4,0.8c0,0.3-2.2,2.8-5.3,2.8
		c-1.5,0-3-0.6-4.1-2c-0.3-0.4-0.6-0.9-1-0.9s-1.2,0.6-2.5,1.3c-1.4,0.8-2.8,1.6-4.5,1.6c-1.8,0-3.3-0.5-4.4-1.5
		c-1.2-1.1-2-2.7-2-4.4c0-2.5,1.2-3.9,5.2-5.4L311.2,731z M307.3,742.2c1.3,0,3.2-0.9,3.9-1.6c0.8-0.8,0.8-1.6,0.8-3l0.1-3.7
		c0-0.7-0.3-0.8-0.6-0.8c-0.3,0-1.5,0.3-2.6,0.6c-3.7,1.3-5.6,2.2-5.6,4.7C303.3,739.5,304.1,742.2,307.3,742.2z"/>
	<path fill="#FFFFFF" d="M333.2,721.8c-1.1,0-1.1,0.2-1.1,1.5v11.8c0,3.7,0.4,7,4.6,7c0.6,0,1.2-0.1,1.7-0.3
		c0.6-0.2,1.4-0.9,1.6-0.9c0.5,0,0.8,0.7,0.6,1.1c-1.1,1.3-3.4,2.9-6.6,2.9c-5.4,0-6.6-3-6.6-6.8v-14.5c0-1.7-0.1-1.8-1.3-1.8h-1.8
		c-0.4-0.3-0.4-0.9-0.2-1.3c1.8-0.6,3.4-1.4,4-2c0.8-0.8,2-2.5,2.7-3.7c0.3-0.1,1.1-0.1,1.3,0.3v2.8c0,1.1,0.1,1.2,1.1,1.2h7
		c0.8,0.6,0.6,2.3,0.1,2.7H333.2L333.2,721.8z"/>
	<path fill="#FFFFFF" d="M349.5,727.9c-1.6,0-1.7,0.1-1.7,1.7c0,6.4,3.7,11.8,10.5,11.8c2.1,0,3.9-0.6,5.8-3.1
		c0.6-0.2,1.1,0.2,1.1,0.8c-2.1,4.3-6.6,5.9-9.9,5.9c-4.1,0-7.3-1.8-9.2-4.2c-1.9-2.5-2.7-5.4-2.7-8.2c0-7.8,5.1-14.3,12.7-14.3
		c5.4,0,9,3.7,9,7.5c0,0.9-0.1,1.4-0.3,1.6c-0.2,0.4-1.1,0.4-3.7,0.4h-11.6L349.5,727.9L349.5,727.9z M353.4,726
		c4.7,0,6.1-0.3,6.6-0.6c0.2-0.1,0.4-0.4,0.4-1.2c0-1.8-1.2-4-4.9-4s-6.9,3.4-7,5.5c0,0.1,0,0.3,0.4,0.3L353.4,726L353.4,726z"/>
	<path fill="#FFFFFF" d="M408,729.4c-0.4-1.4-0.7-1.6-2.6-1.6h-9.5c-1.6,0-2,0.2-2.4,1.5l-2.2,6.6c-0.9,2.8-1.4,4.5-1.4,5.2
		c0,0.8,0.3,1.1,1.8,1.3l2.1,0.2c0.4,0.3,0.4,1.3-0.1,1.6c-1.6-0.1-3.6-0.1-6.6-0.2c-2.1,0-4.4,0.1-6.1,0.2
		c-0.4-0.3-0.5-1.3-0.1-1.6l2.1-0.2c1.5-0.1,2.9-0.8,3.8-3.1c1.1-2.9,2.9-7,5.6-14.1l6.4-17.2c0.9-2.3,1.3-3.5,1.1-4.5
		c1.5-0.4,2.6-1.6,3.3-2.4c0.4,0,0.8,0.1,0.9,0.6c0.8,2.8,1.8,5.7,2.8,8.5l8.7,25.5c1.8,5.4,2.7,6.4,5.4,6.7l1.7,0.2
		c0.4,0.3,0.3,1.3,0,1.6c-2.6-0.1-4.8-0.2-7.6-0.2c-3,0-5.4,0.1-7.3,0.2c-0.5-0.3-0.6-1.3-0.1-1.6l1.8-0.2c1.3-0.1,2.2-0.5,2.2-1.1
		c0-0.7-0.3-1.8-0.8-3.3L408,729.4z M395.5,723.8c-0.5,1.5-0.4,1.5,1.3,1.5h7.8c1.8,0,2-0.3,1.4-2l-3.4-10.3c-0.5-1.5-1.1-3.2-1.5-4
		H401c-0.2,0.3-0.8,1.8-1.5,3.7L395.5,723.8z"/>
	<path fill="#FFFFFF" d="M439,719.4c0.6,1.4,1,3.4,1,5.1c-0.3,0.4-1.2,0.6-1.5,0.2c-1.1-2.8-3-4.6-5.6-4.6c-2.5,0-4,1.6-4,3.9
		c0,2.6,2.7,4,4.9,5.2c3.3,1.9,6.4,4,6.4,8.5c0,4.8-4.4,7.2-9.1,7.2c-3,0-5.2-0.6-6.8-1.9c-0.5-1.2-0.9-4.3-0.8-6.4
		c0.3-0.4,1.1-0.4,1.5-0.1c1.1,3.5,3.1,6.5,6.7,6.5c2.3,0,4.2-1.3,4.2-4c0-2.9-2.5-4.5-4.9-5.8c-3.7-2.1-6.3-4.3-6.3-7.8
		c0-4.6,3.8-7.2,8.6-7.2C436.1,718.3,438.4,718.9,439,719.4z"/>
	<path fill="#FFFFFF" d="M459.5,719.4c0.6,1.4,1,3.4,1,5.1c-0.3,0.4-1.2,0.6-1.5,0.2c-1.1-2.8-3-4.6-5.6-4.6c-2.5,0-4,1.6-4,3.9
		c0,2.6,2.7,4,4.9,5.2c3.3,1.9,6.4,4,6.4,8.5c0,4.8-4.4,7.2-9.1,7.2c-3,0-5.2-0.6-6.8-1.9c-0.5-1.2-0.9-4.3-0.8-6.4
		c0.3-0.4,1.1-0.4,1.5-0.1c1.1,3.5,3.1,6.5,6.7,6.5c2.3,0,4.2-1.3,4.2-4c0-2.9-2.5-4.5-4.9-5.8c-3.7-2.1-6.3-4.3-6.3-7.8
		c0-4.6,3.8-7.2,8.6-7.2C456.6,718.3,458.9,718.9,459.5,719.4z"/>
	<path fill="#FFFFFF" d="M470.8,727.9c-1.6,0-1.7,0.1-1.7,1.7c0,6.4,3.7,11.8,10.5,11.8c2.1,0,3.9-0.6,5.8-3.1
		c0.6-0.2,1.1,0.2,1.1,0.8c-2.1,4.3-6.6,5.9-9.9,5.9c-4.1,0-7.3-1.8-9.2-4.2c-1.9-2.5-2.7-5.4-2.7-8.2c0-7.8,5.1-14.3,12.7-14.3
		c5.4,0,9,3.7,9,7.5c0,0.9-0.1,1.4-0.3,1.6c-0.2,0.4-1.1,0.4-3.7,0.4h-11.6L470.8,727.9L470.8,727.9z M474.7,726
		c4.7,0,6.1-0.3,6.6-0.6c0.2-0.1,0.4-0.4,0.4-1.2c0-1.8-1.2-4-4.9-4s-6.9,3.4-7,5.5c0,0.1,0,0.3,0.4,0.3L474.7,726L474.7,726z"/>
	<path fill="#FFFFFF" d="M527.5,727.8c0-4.3-1.9-6.5-5.9-6.5c-2.4,0-4.4,1.1-5.2,2.2c-0.8,0.9-0.9,1.6-0.9,3.8v9.7
		c0,4.5,0.1,5.2,2.4,5.5l1.3,0.2c0.4,0.3,0.3,1.4-0.1,1.6c-1.9-0.1-3.7-0.2-5.9-0.2c-2.3,0-4,0.1-5.7,0.2c-0.4-0.2-0.6-1.3-0.1-1.6
		l1.1-0.2c2.3-0.4,2.4-0.9,2.4-5.5v-9.2c0-4.2-1.9-6.5-5.8-6.5c-2.6,0-4.4,1.1-5.3,2.3c-0.6,0.8-0.9,1.6-0.9,3.6v9.8
		c0,4.5,0.1,5.1,2.4,5.5l1.1,0.2c0.4,0.3,0.3,1.4-0.1,1.6c-1.7-0.1-3.5-0.2-5.7-0.2c-2.3,0-4.2,0.1-6.1,0.2
		c-0.4-0.2-0.6-1.3-0.1-1.6l1.5-0.2c2.3-0.3,2.4-0.9,2.4-5.5v-11.1c0-2.5,0-2.8-1.7-3.9l-0.6-0.4c-0.3-0.3-0.3-0.9,0.1-1.1
		c1.5-0.5,5.1-2.1,6.3-3.1c0.3,0,0.6,0.1,0.7,0.4c-0.1,1.5-0.1,2.4-0.1,3c0,0.4,0.3,0.7,0.7,0.7c2.4-1.7,5.4-3.2,8.4-3.2
		c3.2,0,4.9,1.1,6.7,3.7c0.6,0.1,1-0.1,1.6-0.5c2.5-1.8,5.6-3.2,8.6-3.2c5.1,0,7.5,3.5,7.5,7.8v10.9c0,4.5,0.1,5.2,2.4,5.5l1.5,0.2
		c0.4,0.3,0.3,1.4-0.1,1.6c-2.1-0.1-3.9-0.2-6.1-0.2c-2.3,0-4,0.1-5.7,0.2c-0.4-0.2-0.6-1.3-0.1-1.6l1.1-0.2
		c2.3-0.4,2.4-0.9,2.4-5.5v-9.2L527.5,727.8L527.5,727.8z"/>
	<path fill="#FFFFFF" d="M542.4,708.5c0-3.7-0.1-4.1-2-5.2l-0.6-0.4c-0.3-0.2-0.3-1.1,0-1.3c1.5-0.6,4.5-1.4,6.9-2.7
		c0.3,0,0.5,0.1,0.6,0.4c-0.1,2.2-0.3,5.1-0.3,7.8V719c0,1.1,0.3,1.3,0.6,1.3c1.6-0.9,4.2-2.1,7.3-2.1c7.2,0,12.1,5.4,12.1,12.4
		c0,8.4-6.1,14.3-14.5,14.3c-2.3,0-4.1-0.4-5.4-0.8s-2.1-0.8-2.7-0.8c-0.5,0-1,0.5-1.3,0.9c-0.1,0.1-0.1,0.1-0.3,0.1
		c-0.3,0-0.5-0.1-0.6-0.4c0.1-0.9,0.1-2.1,0.1-5.4v-30.1L542.4,708.5L542.4,708.5z M547,735.6c0,2.2,0.5,4.2,1.6,5.5
		c1.1,1.3,2.8,2.1,4.8,2.1c5.9,0,8.3-5.1,8.3-10.5c0-6.5-3.3-11.6-9.6-11.6c-1.9,0-3.4,0.4-4.3,1c-0.6,0.4-0.8,1.1-0.8,3.6V735.6z"
		/>
	<path fill="#FFFFFF" d="M579.5,737.1c0,4.5,0.1,5.2,2.4,5.5l1.5,0.2c0.4,0.3,0.3,1.4-0.1,1.6c-2.1-0.1-3.9-0.2-6.1-0.2
		c-2.3,0-4.2,0.1-6.1,0.2c-0.4-0.2-0.6-1.3-0.1-1.6l1.5-0.2c2.3-0.3,2.4-0.9,2.4-5.5v-28.6c0-3.7-0.1-4.1-2-5.2l-0.6-0.4
		c-0.3-0.2-0.3-1.1,0-1.3c1.6-0.5,4.5-1.5,6.8-2.7c0.3,0,0.5,0.1,0.6,0.4c-0.1,1.9-0.2,5.1-0.2,7.8L579.5,737.1L579.5,737.1z"/>
	<path fill="#FFFFFF" d="M586.4,757.2c0-1.7,1.1-2.5,2.5-2.5h1.2c1,0,1.6-0.4,2.1-1.1c1.8-2.8,3.1-5.5,3.7-7
		c0.2-0.5,0.6-1.8,0.6-2.7c0-1.3-0.3-2-1.1-4.4l-4.9-13.5c-1.1-3-1.5-4.5-3.7-4.9l-1.6-0.3c-0.4-0.3-0.3-1.4,0.2-1.6
		c2,0.1,3.9,0.2,6,0.2c1.7,0,3.5-0.1,5.5-0.2c0.5,0.2,0.6,1.3,0.1,1.6l-1.6,0.3c-0.9,0.2-1.4,0.4-1.4,0.8c0,0.8,1.5,4.9,1.8,5.9
		l2,5.8c0.4,1,1.6,4.4,1.8,4.5c0.2-0.1,1.2-2.1,2.3-4.7l2.1-5c1.4-3.3,2.2-5.6,2.2-6.3c0-0.4-0.4-0.9-1.5-1.1l-2-0.3
		c-0.4-0.3-0.4-1.4,0.1-1.6c2,0.1,3.9,0.2,5.6,0.2c1.6,0,3-0.1,4.8-0.2c0.5,0.3,0.6,1.2,0.1,1.6l-1.1,0.2c-2.1,0.4-3.2,2.2-5.4,6.7
		l-3.5,7.3c-2.1,4.2-7.3,15.2-10.4,22.2c-1.1,2.4-2.6,3-4,3C587.4,759.9,586.4,758.8,586.4,757.2z"/>
</g>
</svg>
