<?xml version="1.0" encoding="utf-8"?>
<!-- Generator: Adobe Illustrator 18.1.0, SVG Export Plug-In . SVG Version: 6.00 Build 0)  -->
<!DOCTYPE svg PUBLIC "-//W3C//DTD SVG 1.1//EN" "http://www.w3.org/Graphics/SVG/1.1/DTD/svg11.dtd">
<svg version="1.1" id="Layer_1" xmlns="http://www.w3.org/2000/svg" xmlns:xlink="http://www.w3.org/1999/xlink" x="0px" y="0px"
	 viewBox="0 0 612 792" enable-background="new 0 0 612 792" xml:space="preserve">
<g>
	<path fill="#FFFFFF" d="M95.2,431.5c0,4.4,1.1,7.7,5.8,7.7c4.3,0,6.5-2.8,6.5-7.9v-8.7c0-0.6-0.2-1.1-0.2-1.7
		c-0.2-1.1-1.3-1.6-2.7-1.7v-0.8h7.3v0.8c-1.4,0.2-2.5,0.6-2.7,1.7c0,0.5-0.2,1.1-0.2,1.7v8.7c0,6.6-4.3,9.2-8.2,9.2
		c-6.6,0-8.7-3.3-8.7-9v-9.3c0-2.8,0.2-2.7-2.7-3v-0.8h8.4v0.8c-2.8,0.3-2.7,0.2-2.7,3V431.5L95.2,431.5z"/>
	<path fill="#FFFFFF" d="M129.5,440.2c-3.8-4.6-7.7-9.2-11.7-13.9v10.6c0,0.5,0.2,0.9,0.2,1.3c0.2,0.8,0.9,1.3,2.5,1.3v0.6h-5.8
		v-0.6c1.1-0.2,1.9-0.5,2.1-1.3c0-0.3,0.2-0.8,0.2-1.3v-11.4c-0.6-0.8-1.4-1.6-2.8-1.6v-0.6h4.4c3.6,4.3,7.3,8.7,10.9,13.1l0,0v-9.8
		c0-0.5-0.2-0.9-0.2-1.3c-0.2-0.8-0.9-1.3-2.5-1.3v-0.6h5.8v0.6c-1.1,0.2-1.9,0.5-2.1,1.3c0,0.3-0.2,0.8-0.2,1.3v13.6H129.5
		L129.5,440.2z"/>
	<path fill="#FFFFFF" d="M141.8,437.2c0,2.2-0.2,2.1,2.1,2.4v0.6h-6.5v-0.6c2.2-0.3,2.1-0.2,2.1-2.4v-10.7c0-2.2,0.2-2.1-2.1-2.4
		v-0.6h6.5v0.6c-2.2,0.3-2.1,0.2-2.1,2.4L141.8,437.2L141.8,437.2z"/>
	<path fill="#FFFFFF" d="M154.1,424.1c-1.3,0-2.2,0.3-1.4,2.7c0.9,2.8,2.4,6.9,3.6,10.6c1.6-3.6,3-7.4,4.4-11.1
		c0.6-1.6,0-2.2-1.6-2.2v-0.6h5.2v0.6c-0.6,0-1.4,0.3-2.1,1.4c-2.1,4.9-4.1,9.8-6,14.7h-1.3c-1.4-4.1-3.2-8.8-4.6-12.8
		c-0.9-2.5-1.6-3.3-2.8-3.3v-0.6h6.5L154.1,424.1L154.1,424.1z"/>
	<path fill="#FFFFFF" d="M167.8,439.6c2.2-0.3,2.1-0.2,2.1-2.4v-10.7c0-2.2,0.2-2.1-2.1-2.4v-0.6h10.7v3.8h-0.6
		c-0.3-1.7-0.8-3.2-2.4-3.2h-3.3v6.8h2.1c1.6,0,2.2-0.6,2.2-2.1h0.6v5.2h-0.6c0-1.4-0.6-2.2-2.2-2.2h-2.1v5.4c0,2.1,0.9,2.2,3.2,2.2
		c3.5,0,3.3-0.9,4.4-3.5h0.6l-0.8,4.3h-11.8L167.8,439.6L167.8,439.6z"/>
	<path fill="#FFFFFF" d="M184.1,423.5h6.9c2.4,0,4.9,1.3,4.9,4.1c0,2.5-1.6,4.1-3.3,4.9l2.4,3.6c1.3,1.7,2.5,3.5,3.3,3.9v0.3h-2.5
		c-1.4,0-2.2-2.7-5.1-7.4h-2.2v4.3c0,2.2-0.2,2.1,2.1,2.4v0.6h-6.5v-0.6c2.2-0.3,2.1-0.2,2.1-2.4v-10.7c0-2.2,0.2-2.1-2.1-2.4
		L184.1,423.5L184.1,423.5z M188.5,432h2.1c2.1,0,3-1.6,3-4.3s-1.4-3.5-3.2-3.5h-1.9L188.5,432L188.5,432z"/>
	<path fill="#FFFFFF" d="M210.2,426.9c-0.2-1.7-1.1-3-3-3c-1.4,0-2.7,0.8-2.7,2.5s1.7,2.7,4.1,4.4c2.5,1.9,3.3,3.2,3.3,5.1
		c0,2.8-3,4.4-5.8,4.4c-1.6,0-2.8-0.3-4.1-0.8c-0.2,0-0.2-0.2-0.2-0.3v-3.5h0.6c0.3,2.7,2.1,3.8,3.8,3.8c1.7,0,3.2-1.3,3.2-3
		c0-1.6-0.8-2.8-4.4-5.2c-1.3-0.8-2.8-1.7-2.8-4.4c0-2.2,2.4-3.8,5.2-3.8c1.1,0,2.4,0.2,3.3,0.5c0.2,0,0.2,0.2,0.2,0.3v3.2
		C210.8,426.9,210.2,426.9,210.2,426.9z"/>
	<path fill="#FFFFFF" d="M220.6,437.2c0,2.2-0.2,2.1,2.1,2.4v0.6h-6.5v-0.6c2.2-0.3,2.1-0.2,2.1-2.4v-10.7c0-2.2,0.2-2.1-2.1-2.4
		v-0.6h6.5v0.6c-2.2,0.3-2.1,0.2-2.1,2.4V437.2z"/>
	<path fill="#FFFFFF" d="M234.5,437.2c0,2.2-0.2,2.1,2.1,2.4v0.6h-6.5v-0.6c2.2-0.3,2.1-0.2,2.1-2.4v-12.9h-2.2
		c-2.1,0-2.5,1.3-3.3,2.8h-0.6l0.6-3.6h13.3l0.6,3.6H240c-0.8-1.6-1.3-2.8-3.3-2.8h-2.2V437.2L234.5,437.2z"/>
	<path fill="#FFFFFF" d="M247.6,439.6c2.2-0.3,2.1-0.2,2.1-2.4v-3.6l-3.6-7.3c-0.8-1.6-1.4-2.2-2.5-2.2v-0.6h6.2v0.6
		c-1.9,0-1.6,0.9-1.1,2.2l2.8,6l3.3-6c0.8-1.4,0-2.2-1.4-2.2v-0.6h4.9v0.6c-0.6,0-1.3,0.3-1.9,1.4l-3.9,7.3
		c-0.3,0.5-0.3,1.1-0.3,1.7v2.7c0,2.2-0.2,2.1,2.1,2.4v0.6h-6.5L247.6,439.6L247.6,439.6z"/>
	<path fill="#FFFFFF" d="M269.2,434.5c0-4.1,3.5-10.1,8.7-10.1c4.1,0,5.1,2.8,5.1,5.5c0,3.5-2.7,10.7-8.7,10.7
		C270.3,440.5,269.2,437.4,269.2,434.5z M280.1,428.4c0-3.2-1.9-3.3-2.5-3.3c-3.3,0-5.5,6-5.5,10.1c0,1.6,0.3,4.6,2.5,4.6
		C278.2,439.7,280.1,433.9,280.1,428.4z"/>
	<path fill="#FFFFFF" d="M298.6,425.4l-0.8,0.6h-4.1c-1.6,7.4-3.9,17.2-5.8,21.9h-1.4l4.4-21.9h-3l0.3-1.3h3
		c1.6-6.6,7.1-7.3,8.4-7.3c0.8,0,2.2,0.2,2.7,0.6l-0.3,2.1l-0.8,0.3c-0.5-0.8-1.4-1.7-2.7-1.7c-1.9,0-3.3,1.3-3.9,4.6l-0.3,1.4h4.6
		L298.6,425.4z"/>
	<path fill="#FFFFFF" d="M317.5,436.3c0,2.8-0.2,2.7,2.7,3v0.8h-8.4v-0.8c2.8-0.3,2.7-0.2,2.7-3v-14.1c0-2.8,0.2-2.7-2.7-3v-0.8h8.2
		c5.2,0,7.7,2.1,7.7,5.8c0,4.4-4.1,6.9-8.8,6.6v-0.6c3.9,0,5.7-2.2,5.7-5.7s-1.7-5.1-5.2-5.1h-1.9L317.5,436.3L317.5,436.3z"/>
	<path fill="#FFFFFF" d="M331.9,439.6c2.2-0.3,2.1-0.2,2.1-2.4v-10.7c0-2.2,0.2-2.1-2.1-2.4v-0.6h10.7v3.8H342
		c-0.3-1.7-0.8-3.2-2.4-3.2h-3.3v6.8h2.1c1.6,0,2.2-0.6,2.2-2.1h0.6v5.2h-0.6c0-1.4-0.6-2.2-2.2-2.2h-2.1v5.4c0,2.1,0.9,2.2,3.2,2.2
		c3.5,0,3.3-0.9,4.4-3.5h0.6l-0.8,4.3h-11.8V439.6L331.9,439.6z"/>
	<path fill="#FFFFFF" d="M363.5,440.2c-3.8-4.6-7.7-9.2-11.7-13.9v10.6c0,0.5,0.2,0.9,0.2,1.3c0.2,0.8,0.9,1.3,2.5,1.3v0.6h-5.8
		v-0.6c1.1-0.2,1.9-0.5,2.1-1.3c0-0.3,0.2-0.8,0.2-1.3v-11.4c-0.6-0.8-1.4-1.6-2.8-1.6v-0.6h4.4c3.6,4.3,7.3,8.7,10.9,13.1l0,0v-9.8
		c0-0.5-0.2-0.9-0.2-1.3c-0.2-0.8-0.9-1.3-2.5-1.3v-0.6h5.8v0.6c-1.1,0.2-1.9,0.5-2.1,1.3c0,0.3-0.2,0.8-0.2,1.3v13.6H363.5
		L363.5,440.2L363.5,440.2z"/>
	<path fill="#FFFFFF" d="M384.9,440.2c-3.8-4.6-7.7-9.2-11.7-13.9v10.6c0,0.5,0.2,0.9,0.2,1.3c0.2,0.8,0.9,1.3,2.5,1.3v0.6h-5.8
		v-0.6c1.1-0.2,1.9-0.5,2.1-1.3c0-0.3,0.2-0.8,0.2-1.3v-11.4c-0.6-0.8-1.4-1.6-2.8-1.6v-0.6h4.4c3.6,4.3,7.3,8.7,10.9,13.1l0,0v-9.8
		c0-0.5-0.2-0.9-0.2-1.3c-0.2-0.8-0.9-1.3-2.5-1.3v-0.6h5.8v0.6c-1.1,0.2-1.9,0.5-2.1,1.3c0,0.3-0.2,0.8-0.2,1.3v13.6H384.9
		L384.9,440.2L384.9,440.2z"/>
	<path fill="#FFFFFF" d="M400.6,426.9c-0.2-1.7-1.1-3-3-3c-1.4,0-2.7,0.8-2.7,2.5s1.7,2.7,4.1,4.4c2.5,1.9,3.3,3.2,3.3,5.1
		c0,2.8-3,4.4-5.8,4.4c-1.6,0-2.8-0.3-4.1-0.8c-0.2,0-0.2-0.2-0.2-0.3v-3.5h0.6c0.3,2.7,2.1,3.8,3.8,3.8c1.7,0,3.2-1.3,3.2-3
		c0-1.6-0.8-2.8-4.4-5.2c-1.3-0.8-2.8-1.7-2.8-4.4c0-2.2,2.4-3.8,5.2-3.8c1.1,0,2.4,0.2,3.3,0.5c0.2,0,0.2,0.2,0.2,0.3v3.2
		C401.2,426.9,400.6,426.9,400.6,426.9z"/>
	<path fill="#FFFFFF" d="M410.2,439.6c2.2-0.3,2.1-0.2,2.1-2.4v-3.6l-3.6-7.3c-0.8-1.6-1.4-2.2-2.5-2.2v-0.6h6.2v0.6
		c-1.9,0-1.6,0.9-1.1,2.2l2.8,6l3.3-6c0.8-1.4,0-2.2-1.4-2.2v-0.6h4.9v0.6c-0.6,0-1.3,0.3-1.9,1.4l-3.9,7.3
		c-0.3,0.5-0.3,1.1-0.3,1.7v2.7c0,2.2-0.2,2.1,2.1,2.4v0.6h-6.5L410.2,439.6L410.2,439.6z"/>
	<path fill="#FFFFFF" d="M424.9,439.6c2.2-0.3,2.1-0.2,2.1-2.4v-10.7c0-2.2,0.2-2.1-2.1-2.4v-0.6h6.5v0.6c-2.2,0.3-2.1,0.2-2.1,2.4
		v11.2c0,1.7,0.9,1.9,3,1.9c3.5,0,3.3-0.9,4.4-3.5h0.6l-0.8,4.3h-11.8v-0.8H424.9z"/>
	<path fill="#FFFFFF" d="M445.7,424.1c-1.3,0-2.2,0.3-1.4,2.7c0.9,2.8,2.4,6.9,3.6,10.6c1.6-3.6,3-7.4,4.4-11.1
		c0.6-1.6,0-2.2-1.6-2.2v-0.6h5.2v0.6c-0.6,0-1.4,0.3-2.1,1.4c-2.1,4.9-4.1,9.8-6,14.7h-1.3c-1.4-4.1-3.2-8.8-4.6-12.8
		c-0.9-2.5-1.6-3.3-2.8-3.3v-0.6h6.5L445.7,424.1L445.7,424.1z"/>
	<path fill="#FFFFFF" d="M459.8,434.7l-1.1,3.2c-0.3,0.9,0.2,1.7,1.3,1.7v0.6h-4.4v-0.6c0.6,0,1.4-0.5,1.7-1.3
		c1.1-2.1,3.8-9.9,5.8-15.3h1.4c1.6,4.9,4.1,12.2,4.9,14.4c0.5,1.4,0.9,2.1,1.9,2.1v0.6h-5.5v-0.6c1.6,0,1.6-0.8,1.3-1.9l-1.1-3.2
		h-6.2V434.7z M465.6,433.7l-2.5-7.7l0,0l-2.8,7.7H465.6z"/>
	<path fill="#FFFFFF" d="M489.6,440.2c-3.8-4.6-7.7-9.2-11.7-13.9v10.6c0,0.5,0.2,0.9,0.2,1.3c0.2,0.8,0.9,1.3,2.5,1.3v0.6h-5.8
		v-0.6c1.1-0.2,1.9-0.5,2.1-1.3c0-0.3,0.2-0.8,0.2-1.3v-11.4c-0.6-0.8-1.4-1.6-2.8-1.6v-0.6h4.4c3.6,4.3,7.3,8.7,10.9,13.1l0,0v-9.8
		c0-0.5-0.2-0.9-0.2-1.3c-0.2-0.8-0.9-1.3-2.5-1.3v-0.6h5.8v0.6c-1.1,0.2-1.9,0.5-2.1,1.3c0,0.3-0.2,0.8-0.2,1.3v13.6H489.6
		L489.6,440.2L489.6,440.2z"/>
	<path fill="#FFFFFF" d="M501,437.2c0,2.2-0.2,2.1,2.1,2.4v0.6h-6.5v-0.6c2.2-0.3,2.1-0.2,2.1-2.4v-10.7c0-2.2,0.2-2.1-2.1-2.4v-0.6
		h6.5v0.6c-2.2,0.3-2.1,0.2-2.1,2.4V437.2z"/>
	<path fill="#FFFFFF" d="M511.1,434.7l-1.1,3.2c-0.3,0.9,0.2,1.7,1.3,1.7v0.6h-4.4v-0.6c0.6,0,1.4-0.5,1.7-1.3
		c1.1-2.1,3.8-9.9,5.8-15.3h1.4c1.6,4.9,4.1,12.2,4.9,14.4c0.5,1.4,0.9,2.1,1.9,2.1v0.6h-5.5v-0.6c1.6,0,1.6-0.8,1.3-1.9l-0.9-3.2
		h-6.3V434.7z M516.8,433.7l-2.5-7.7l0,0l-2.8,7.7H516.8z"/>
</g>
<g enable-background="new    ">
	<path fill="#FFFFFF" d="M38.2,370.6c0-3.9-0.1-11.2-1.2-13.1c-0.4-0.8-1.6-1.2-3.2-1.3l-1.6-0.1c-0.4-0.4-0.3-1.3,0.1-1.5
		c2.4,0.1,4.7,0.2,7.2,0.2c2.7,0,4.4-0.1,6.6-0.2c0.5,0.3,0.4,1.1,0.1,1.5l-1.5,0.1c-1.6,0.1-2.8,0.7-3.2,1.5
		c-0.9,2.1-0.9,9.3-0.9,12.9v7.1c0,5.5-0.9,11.3-4.4,15.1c-2.7,3-7.4,4.6-12.1,4.6c-4.4,0-8.7-0.8-11.8-3.5
		c-3.3-2.8-4.9-7.4-4.9-14.9v-14.9c0-6.6-0.1-7.6-3.8-8l-1.6-0.1c-0.4-0.3-0.3-1.3,0.1-1.5c3.2,0.1,5.3,0.2,7.8,0.2
		c2.6,0,4.7-0.1,7.8-0.2c0.4,0.2,0.5,1.3,0.1,1.5l-1.5,0.1c-3.7,0.3-3.8,1.4-3.8,8v13.6c0,10.2,3.2,16.9,12.8,16.9
		c9.2,0,12.6-7.2,12.6-16.8V370.6z"/>
	<path fill="#FFFFFF" d="M51,378.3c0-2.5,0-2.8-1.7-3.9l-0.6-0.4c-0.3-0.3-0.3-0.9,0.1-1.1c1.5-0.5,5.1-2.1,6.3-3.1
		c0.3,0,0.6,0.1,0.7,0.4c-0.1,1.5-0.1,2.4-0.1,3c0,0.4,0.3,0.7,0.7,0.7c2.7-1.6,5.6-3.2,8.8-3.2c5.2,0,7.4,3.6,7.4,7.8v10.9
		c0,4.5,0.1,5.2,2.4,5.5l1.4,0.2c0.4,0.3,0.3,1.4-0.1,1.6c-1.9-0.1-3.7-0.2-5.9-0.2c-2.3,0-4.2,0.1-5.9,0.2
		c-0.4-0.2-0.6-1.3-0.1-1.6l1.2-0.2c2.3-0.4,2.4-0.9,2.4-5.5V380c0-3.6-1.6-6.3-5.9-6.3c-2.4,0-4.5,1-5.4,2.2
		c-0.8,1.1-0.9,2-0.9,3.8v9.7c0,4.5,0.1,5.1,2.4,5.5l1.1,0.2c0.4,0.3,0.3,1.4-0.1,1.6c-1.7-0.1-3.5-0.2-5.7-0.2
		c-2.3,0-4.2,0.1-5.9,0.2c-0.4-0.2-0.6-1.3-0.1-1.6l1.3-0.2c2.3-0.3,2.4-0.9,2.4-5.5V378.3z"/>
	<path fill="#FFFFFF" d="M104.8,387.3c0,5,0.1,7.3,1.8,7.3c0.7,0,1.8-0.3,2.7-0.6c0.4,0.1,0.5,1.7-0.1,2c-2.7,0.4-6.6,1.3-8.3,2
		c-0.4,0-0.7-0.2-0.7-0.5v-1.1c0-0.9,0-1.7-0.1-2h-0.3c-2.8,1.9-4.9,2.9-8,2.9c-7,0-11.7-5.5-11.7-12.1c0-8.8,6.7-14.5,15.3-14.5
		c2.1,0,3.5,0.3,4.2,0.6c0.3,0,0.4-0.4,0.4-0.9v-9.5c0-3.7-0.1-4.1-2-5.2l-0.6-0.4c-0.3-0.2-0.3-1.1,0-1.3c1.6-0.5,4.5-1.5,6.8-2.7
		c0.3,0,0.5,0.1,0.6,0.4c-0.1,1.9-0.2,5.1-0.2,7.8V387.3z M100.1,377.8c0-1.3-0.3-1.8-0.7-2.5c-0.9-1.3-2.8-2.7-5.3-2.7
		c-5.7,0-8.7,5-8.7,10.5c0,5.7,3.2,11.2,9.4,11.2c1.7,0,3.9-0.8,4.9-1.8c0.4-0.4,0.4-1.3,0.4-2.3V377.8z"/>
	<path fill="#FFFFFF" d="M118.4,380.3c-1.6,0-1.7,0.1-1.7,1.7c0,6.4,3.7,11.8,10.5,11.8c2.1,0,3.9-0.6,5.8-3.1
		c0.6-0.2,1.1,0.2,1.1,0.8c-2.1,4.3-6.6,5.9-9.9,5.9c-4.1,0-7.3-1.8-9.2-4.2c-1.9-2.5-2.7-5.4-2.7-8.2c0-7.8,5.1-14.3,12.7-14.3
		c5.4,0,9,3.7,9,7.5c0,0.9-0.1,1.4-0.3,1.6c-0.2,0.4-1.1,0.4-3.7,0.4H118.4z M122.3,378.4c4.7,0,6.1-0.3,6.6-0.6
		c0.2-0.1,0.4-0.4,0.4-1.2c0-1.8-1.2-4-4.9-4c-3.7,0-6.9,3.4-7,5.5c0,0.1,0,0.3,0.4,0.3H122.3z"/>
	<path fill="#FFFFFF" d="M141.3,378.3c0-2.5,0-2.8-1.7-3.9l-0.6-0.4c-0.3-0.3-0.3-0.9,0.1-1.1c1.5-0.5,4.8-2.1,6.4-3.1
		c0.3,0.1,0.5,0.2,0.5,0.4v3.7c0,0.3,0.1,0.5,0.2,0.6c2.2-1.8,4.6-3.8,6.9-3.8c1.6,0,2.8,1,2.8,2.5c0,2.1-1.7,2.9-2.7,2.9
		c-0.6,0-0.9-0.2-1.4-0.4c-0.9-0.6-1.9-1-2.8-1c-1,0-1.8,0.6-2.3,1.3c-0.6,0.9-0.8,2.7-0.8,4.9v8.6c0,4.5,0.1,5.3,2.5,5.5l2.3,0.2
		c0.4,0.3,0.3,1.4-0.1,1.6c-3-0.1-4.8-0.2-7-0.2c-2.3,0-4.2,0.1-5.8,0.2c-0.4-0.2-0.6-1.3-0.1-1.6l1.2-0.2c2.3-0.4,2.4-0.9,2.4-5.5
		V378.3z"/>
	<path fill="#FFFFFF" d="M184.3,373c0.7,0.3,0.6,2.5-0.4,2.6h-4.5c0.1,1.1,0.1,2.1,0.1,3.2c0,4.4-2.6,10-10.6,10
		c-1.1,0-2-0.1-2.8-0.2c-0.8,0.4-2.8,1.6-2.8,3.5c0,1.5,1.5,2.7,4.4,2.7c2.1,0,4.7-0.2,7.5-0.2c3.5,0,8.8,0.6,8.8,6.9
		c0,6.9-7.5,11.9-15.7,11.9c-7.8,0-10.5-4.2-10.5-7.3c0-1,0.3-1.8,0.7-2.3c1.1-1.1,2.8-2.8,4.3-4.2c0.6-0.6,1.1-1.1,0.5-1.5
		c-2.5-0.6-4.6-2.8-4.6-5c0-0.3,0.3-0.6,0.9-1.1c1.1-0.7,2.3-1.8,3.3-2.9c0.3-0.4,0.6-0.9,0.6-1.2c-2.1-1.1-4.7-3.6-4.7-7.6
		c0-5.4,4.7-9.5,10.3-9.5c2.4,0,4.6,0.6,6.1,1.3c2,0.9,2.5,1,3.9,1H184.3z M171.1,398.5c-2,0-4.5,0.1-5.4,0.7c-1.5,0.9-3,2.9-3,5.3
		c0,3.4,2.7,6.3,8.5,6.3c5.6,0,9.3-3.2,9.3-6.8c0-3.9-2.7-5.5-7.2-5.5H171.1z M175,380.4c0-4.3-1.8-7.9-5.6-7.9
		c-3,0-5.3,2.8-5.3,7.1c0,4.5,2.7,7.4,5.7,7.4C173.2,387,175,384.3,175,380.4z"/>
	<path fill="#FFFFFF" d="M190.5,378.3c0-2.5,0-2.8-1.7-3.9l-0.6-0.4c-0.3-0.3-0.3-0.9,0.1-1.1c1.5-0.5,4.8-2.1,6.4-3.1
		c0.3,0.1,0.5,0.2,0.5,0.4v3.7c0,0.3,0.1,0.5,0.2,0.6c2.2-1.8,4.6-3.8,6.9-3.8c1.6,0,2.8,1,2.8,2.5c0,2.1-1.7,2.9-2.7,2.9
		c-0.6,0-0.9-0.2-1.4-0.4c-0.9-0.6-1.9-1-2.8-1c-1,0-1.8,0.6-2.3,1.3c-0.6,0.9-0.8,2.7-0.8,4.9v8.6c0,4.5,0.1,5.3,2.5,5.5l2.3,0.2
		c0.4,0.3,0.3,1.4-0.1,1.6c-3-0.1-4.8-0.2-7-0.2c-2.3,0-4.2,0.1-5.8,0.2c-0.4-0.2-0.6-1.3-0.1-1.6l1.2-0.2c2.3-0.4,2.4-0.9,2.4-5.5
		V378.3z"/>
	<path fill="#FFFFFF" d="M220.2,383.4c0.9-0.3,1.1-0.9,1.1-1.8l0.1-2.9c0.1-2.3-0.7-5.5-4.6-5.5c-1.8,0-3.9,0.9-4,2.8
		c-0.1,1-0.1,1.8-0.6,2.1c-0.9,0.8-2.7,1.2-3.6,1.2c-0.6,0-0.9-0.3-0.9-0.9c0-3.3,7.1-7.8,11.7-7.8c4.5,0,6.8,2.7,6.6,7.4l-0.4,11
		c-0.1,2.9,0.4,5.5,2.9,5.5c0.6,0,1.2-0.2,1.6-0.4c0.3-0.2,0.6-0.4,0.8-0.4c0.3,0,0.4,0.4,0.4,0.8c0,0.3-2.2,2.8-5.3,2.8
		c-1.5,0-3-0.6-4.1-2c-0.3-0.4-0.6-0.9-1-0.9c-0.4,0-1.2,0.6-2.5,1.3c-1.4,0.8-2.8,1.6-4.5,1.6c-1.8,0-3.3-0.5-4.4-1.5
		c-1.2-1.1-2-2.7-2-4.4c0-2.5,1.2-3.9,5.2-5.4L220.2,383.4z M216.3,394.5c1.3,0,3.2-0.9,3.9-1.6c0.8-0.8,0.8-1.6,0.8-3l0.1-3.7
		c0-0.7-0.3-0.8-0.6-0.8s-1.5,0.3-2.6,0.6c-3.7,1.3-5.6,2.2-5.6,4.7C212.3,391.8,213.1,394.5,216.3,394.5z"/>
	<path fill="#FFFFFF" d="M257.6,387.3c0,5,0.1,7.3,1.8,7.3c0.7,0,1.8-0.3,2.7-0.6c0.4,0.1,0.5,1.7-0.1,2c-2.7,0.4-6.6,1.3-8.3,2
		c-0.4,0-0.7-0.2-0.7-0.5v-1.1c0-0.9,0-1.7-0.1-2h-0.3c-2.8,1.9-4.9,2.9-8,2.9c-7,0-11.7-5.5-11.7-12.1c0-8.8,6.7-14.5,15.3-14.5
		c2.1,0,3.5,0.3,4.2,0.6c0.3,0,0.4-0.4,0.4-0.9v-9.5c0-3.7-0.1-4.1-2-5.2l-0.6-0.4c-0.3-0.2-0.3-1.1,0-1.3c1.6-0.5,4.5-1.5,6.8-2.7
		c0.3,0,0.5,0.1,0.6,0.4c-0.1,1.9-0.2,5.1-0.2,7.8V387.3z M252.9,377.8c0-1.3-0.3-1.8-0.7-2.5c-0.9-1.3-2.8-2.7-5.3-2.7
		c-5.7,0-8.7,5-8.7,10.5c0,5.7,3.2,11.2,9.4,11.2c1.7,0,3.9-0.8,4.9-1.8c0.4-0.4,0.4-1.3,0.4-2.3V377.8z"/>
	<path fill="#FFFFFF" d="M273,387.2c0,4.4,1.1,7.3,5.9,7.3c1.7,0,3.7-0.7,5.1-1.9c0.8-0.8,1.3-1.7,1.3-3.7v-10.4
		c0-4.1-0.4-4.2-2.3-5l-0.8-0.3c-0.4-0.3-0.4-1.1,0.1-1.4c2.5-0.1,6-0.5,7.4-1.1c0.3,0.1,0.5,0.2,0.6,0.4c-0.1,1.2-0.2,3.2-0.2,5.5
		v10.6c0,5,0.2,6.9,2,6.9c0.8,0,1.6-0.1,2.5-0.3c0.4,0.3,0.4,1.6-0.1,1.8c-2.5,0.5-6.1,1.1-8.3,2.3c-0.3,0-0.6-0.2-0.8-0.4V395
		c0-0.6-0.2-0.9-0.6-0.9c-1.9,1.2-5,3.3-8.7,3.3c-5.6,0-7.6-2.8-7.6-7.9v-10.5c0-4,0-4.5-1.9-5.4l-0.8-0.3c-0.4-0.3-0.3-1.2,0.1-1.4
		c2.9-0.1,5.4-0.6,6.8-1.1c0.4,0.1,0.6,0.2,0.6,0.4c-0.1,1.1-0.2,2.4-0.2,5.5V387.2z"/>
	<path fill="#FFFFFF" d="M310.2,383.4c0.9-0.3,1.1-0.9,1.1-1.8l0.1-2.9c0.1-2.3-0.7-5.5-4.6-5.5c-1.8,0-3.9,0.9-4,2.8
		c-0.1,1-0.1,1.8-0.6,2.1c-0.9,0.8-2.7,1.2-3.6,1.2c-0.6,0-0.9-0.3-0.9-0.9c0-3.3,7.1-7.8,11.7-7.8c4.5,0,6.8,2.7,6.6,7.4l-0.4,11
		c-0.1,2.9,0.4,5.5,2.9,5.5c0.6,0,1.2-0.2,1.6-0.4c0.3-0.2,0.6-0.4,0.8-0.4c0.3,0,0.4,0.4,0.4,0.8c0,0.3-2.2,2.8-5.3,2.8
		c-1.5,0-3-0.6-4.1-2c-0.3-0.4-0.6-0.9-1-0.9c-0.4,0-1.2,0.6-2.5,1.3c-1.4,0.8-2.8,1.6-4.5,1.6c-1.8,0-3.3-0.5-4.4-1.5
		c-1.2-1.1-2-2.7-2-4.4c0-2.5,1.2-3.9,5.2-5.4L310.2,383.4z M306.3,394.5c1.3,0,3.2-0.9,3.9-1.6c0.8-0.8,0.8-1.6,0.8-3l0.1-3.7
		c0-0.7-0.3-0.8-0.6-0.8s-1.5,0.3-2.6,0.6c-3.7,1.3-5.6,2.2-5.6,4.7C302.3,391.8,303.1,394.5,306.3,394.5z"/>
	<path fill="#FFFFFF" d="M332.1,374.2c-1.1,0-1.1,0.2-1.1,1.5v11.8c0,3.7,0.4,7,4.6,7c0.6,0,1.2-0.1,1.7-0.3
		c0.6-0.2,1.4-0.9,1.6-0.9c0.5,0,0.8,0.7,0.6,1.1c-1.1,1.3-3.4,2.9-6.6,2.9c-5.4,0-6.6-3-6.6-6.8v-14.5c0-1.7-0.1-1.8-1.3-1.8h-1.8
		c-0.4-0.3-0.4-0.9-0.2-1.3c1.8-0.6,3.4-1.4,4-2c0.8-0.8,2-2.5,2.7-3.7c0.3-0.1,1.1-0.1,1.3,0.3v2.8c0,1.1,0.1,1.2,1.1,1.2h7
		c0.8,0.6,0.6,2.3,0.1,2.7H332.1z"/>
	<path fill="#FFFFFF" d="M348.4,380.3c-1.6,0-1.7,0.1-1.7,1.7c0,6.4,3.7,11.8,10.5,11.8c2.1,0,3.9-0.6,5.8-3.1
		c0.6-0.2,1.1,0.2,1.1,0.8c-2.1,4.3-6.6,5.9-9.9,5.9c-4.1,0-7.3-1.8-9.2-4.2c-1.9-2.5-2.7-5.4-2.7-8.2c0-7.8,5.1-14.3,12.7-14.3
		c5.4,0,9,3.7,9,7.5c0,0.9-0.1,1.4-0.3,1.6c-0.2,0.4-1.1,0.4-3.7,0.4H348.4z M352.3,378.4c4.7,0,6.1-0.3,6.6-0.6
		c0.2-0.1,0.4-0.4,0.4-1.2c0-1.8-1.2-4-4.9-4c-3.7,0-6.9,3.4-7,5.5c0,0.1,0,0.3,0.4,0.3H352.3z"/>
	<path fill="#FFFFFF" d="M406.7,381.8c-0.4-1.4-0.7-1.6-2.6-1.6h-9.5c-1.6,0-2,0.2-2.4,1.5l-2.2,6.6c-0.9,2.8-1.4,4.5-1.4,5.2
		c0,0.8,0.3,1.1,1.8,1.3l2.1,0.2c0.4,0.3,0.4,1.3-0.1,1.6c-1.6-0.1-3.6-0.1-6.6-0.2c-2.1,0-4.4,0.1-6.1,0.2
		c-0.4-0.3-0.5-1.3-0.1-1.6l2.1-0.2c1.5-0.1,2.9-0.8,3.8-3.1c1.1-2.9,2.9-7,5.6-14.1l6.4-17.1c0.9-2.3,1.3-3.5,1.1-4.5
		c1.5-0.4,2.6-1.6,3.3-2.4c0.4,0,0.8,0.1,0.9,0.6c0.8,2.8,1.8,5.7,2.8,8.5l8.7,25.4c1.8,5.4,2.7,6.4,5.4,6.7l1.7,0.2
		c0.4,0.3,0.3,1.3,0,1.6c-2.6-0.1-4.8-0.2-7.6-0.2c-3,0-5.4,0.1-7.3,0.2c-0.5-0.3-0.6-1.3-0.1-1.6l1.8-0.2c1.3-0.1,2.2-0.5,2.2-1.1
		c0-0.7-0.3-1.8-0.8-3.3L406.7,381.8z M394.2,376.2c-0.5,1.5-0.4,1.5,1.3,1.5h7.8c1.8,0,2-0.3,1.4-2l-3.4-10.3
		c-0.5-1.5-1.1-3.2-1.5-4h-0.1c-0.2,0.3-0.8,1.8-1.5,3.7L394.2,376.2z"/>
	<path fill="#FFFFFF" d="M437.6,371.8c0.6,1.4,1,3.4,1,5.1c-0.3,0.4-1.2,0.6-1.5,0.2c-1.1-2.8-3-4.6-5.6-4.6c-2.5,0-4,1.6-4,3.9
		c0,2.6,2.7,4,4.9,5.2c3.3,1.9,6.4,4,6.4,8.5c0,4.8-4.4,7.2-9.1,7.2c-3,0-5.2-0.6-6.8-1.9c-0.5-1.2-0.9-4.3-0.8-6.4
		c0.3-0.4,1.1-0.4,1.5-0.1c1.1,3.5,3.1,6.5,6.7,6.5c2.3,0,4.2-1.3,4.2-4c0-2.9-2.5-4.5-4.9-5.8c-3.7-2.1-6.3-4.3-6.3-7.8
		c0-4.6,3.8-7.2,8.6-7.2C434.7,370.7,437,371.3,437.6,371.8z"/>
	<path fill="#FFFFFF" d="M458,371.8c0.6,1.4,1,3.4,1,5.1c-0.3,0.4-1.2,0.6-1.5,0.2c-1.1-2.8-3-4.6-5.6-4.6c-2.5,0-4,1.6-4,3.9
		c0,2.6,2.7,4,4.9,5.2c3.3,1.9,6.4,4,6.4,8.5c0,4.8-4.4,7.2-9.1,7.2c-3,0-5.2-0.6-6.8-1.9c-0.5-1.2-0.9-4.3-0.8-6.4
		c0.3-0.4,1.1-0.4,1.5-0.1c1.1,3.5,3.1,6.5,6.7,6.5c2.3,0,4.2-1.3,4.2-4c0-2.9-2.5-4.5-4.9-5.8c-3.7-2.1-6.3-4.3-6.3-7.8
		c0-4.6,3.8-7.2,8.6-7.2C455.1,370.7,457.4,371.3,458,371.8z"/>
	<path fill="#FFFFFF" d="M469.3,380.3c-1.6,0-1.7,0.1-1.7,1.7c0,6.4,3.7,11.8,10.5,11.8c2.1,0,3.9-0.6,5.8-3.1
		c0.6-0.2,1.1,0.2,1.1,0.8c-2.1,4.3-6.6,5.9-9.9,5.9c-4.1,0-7.3-1.8-9.2-4.2c-1.9-2.5-2.7-5.4-2.7-8.2c0-7.8,5.1-14.3,12.7-14.3
		c5.4,0,9,3.7,9,7.5c0,0.9-0.1,1.4-0.3,1.6c-0.2,0.4-1.1,0.4-3.7,0.4H469.3z M473.2,378.4c4.7,0,6.1-0.3,6.6-0.6
		c0.2-0.1,0.4-0.4,0.4-1.2c0-1.8-1.2-4-4.9-4c-3.7,0-6.9,3.4-7,5.5c0,0.1,0,0.3,0.4,0.3H473.2z"/>
	<path fill="#FFFFFF" d="M525.8,380.2c0-4.3-1.9-6.5-5.9-6.5c-2.4,0-4.4,1.1-5.2,2.2c-0.8,0.9-0.9,1.6-0.9,3.8v9.7
		c0,4.5,0.1,5.2,2.4,5.5l1.3,0.2c0.4,0.3,0.3,1.4-0.1,1.6c-1.9-0.1-3.7-0.2-5.9-0.2c-2.3,0-4,0.1-5.7,0.2c-0.4-0.2-0.6-1.3-0.1-1.6
		l1.1-0.2c2.3-0.4,2.4-0.9,2.4-5.5v-9.2c0-4.2-1.9-6.5-5.8-6.5c-2.6,0-4.4,1.1-5.3,2.3c-0.6,0.8-0.9,1.6-0.9,3.6v9.8
		c0,4.5,0.1,5.1,2.4,5.5l1.1,0.2c0.4,0.3,0.3,1.4-0.1,1.6c-1.7-0.1-3.5-0.2-5.7-0.2c-2.3,0-4.2,0.1-6.1,0.2
		c-0.4-0.2-0.6-1.3-0.1-1.6l1.5-0.2c2.3-0.3,2.4-0.9,2.4-5.5v-11.1c0-2.5,0-2.8-1.7-3.9l-0.6-0.4c-0.3-0.3-0.3-0.9,0.1-1.1
		c1.5-0.5,5.1-2.1,6.3-3.1c0.3,0,0.6,0.1,0.7,0.4c-0.1,1.5-0.1,2.4-0.1,3c0,0.4,0.3,0.7,0.7,0.7c2.4-1.7,5.4-3.2,8.4-3.2
		c3.2,0,4.9,1.1,6.7,3.7c0.6,0.1,1-0.1,1.6-0.5c2.5-1.8,5.6-3.2,8.6-3.2c5.1,0,7.5,3.5,7.5,7.8v10.9c0,4.5,0.1,5.2,2.4,5.5l1.5,0.2
		c0.4,0.3,0.3,1.4-0.1,1.6c-2.1-0.1-3.9-0.2-6.1-0.2c-2.3,0-4,0.1-5.7,0.2c-0.4-0.2-0.6-1.3-0.1-1.6l1.1-0.2
		c2.3-0.4,2.4-0.9,2.4-5.5V380.2z"/>
	<path fill="#FFFFFF" d="M540.6,360.9c0-3.7-0.1-4.1-2-5.2l-0.6-0.4c-0.3-0.2-0.3-1.1,0-1.3c1.5-0.6,4.5-1.4,6.9-2.7
		c0.3,0,0.5,0.1,0.6,0.4c-0.1,2.2-0.3,5.1-0.3,7.8v11.9c0,1.1,0.3,1.3,0.6,1.3c1.6-0.9,4.2-2.1,7.3-2.1c7.2,0,12.1,5.4,12.1,12.4
		c0,8.4-6.1,14.3-14.5,14.3c-2.3,0-4.1-0.4-5.4-0.8c-1.3-0.4-2.1-0.8-2.7-0.8c-0.5,0-1,0.5-1.3,0.9c-0.1,0.1-0.1,0.1-0.3,0.1
		c-0.3,0-0.5-0.1-0.6-0.4c0.1-0.9,0.1-2.1,0.1-5.4V360.9z M545.2,387.9c0,2.2,0.5,4.2,1.6,5.5c1.1,1.3,2.8,2.1,4.8,2.1
		c5.9,0,8.3-5.1,8.3-10.5c0-6.5-3.3-11.6-9.6-11.6c-1.9,0-3.4,0.4-4.3,1c-0.6,0.4-0.8,1.1-0.8,3.6V387.9z"/>
	<path fill="#FFFFFF" d="M577.6,389.4c0,4.5,0.1,5.2,2.4,5.5l1.5,0.2c0.4,0.3,0.3,1.4-0.1,1.6c-2.1-0.1-3.9-0.2-6.1-0.2
		c-2.3,0-4.2,0.1-6.1,0.2c-0.4-0.2-0.6-1.3-0.1-1.6l1.5-0.2c2.3-0.3,2.4-0.9,2.4-5.5v-28.5c0-3.7-0.1-4.1-2-5.2l-0.6-0.4
		c-0.3-0.2-0.3-1.1,0-1.3c1.6-0.5,4.5-1.5,6.8-2.7c0.3,0,0.5,0.1,0.6,0.4c-0.1,1.9-0.2,5.1-0.2,7.8V389.4z"/>
	<path fill="#FFFFFF" d="M584.5,409.5c0-1.7,1.1-2.5,2.5-2.5h1.2c1,0,1.6-0.4,2.1-1.1c1.8-2.8,3.1-5.5,3.7-7
		c0.2-0.5,0.6-1.8,0.6-2.7c0-1.3-0.3-2-1.1-4.4l-4.9-13.5c-1.1-3-1.5-4.5-3.7-4.9l-1.6-0.3c-0.4-0.3-0.3-1.4,0.2-1.6
		c2,0.1,3.9,0.2,6,0.2c1.7,0,3.5-0.1,5.5-0.2c0.5,0.2,0.6,1.3,0.1,1.6l-1.6,0.3c-0.9,0.2-1.4,0.4-1.4,0.8c0,0.8,1.5,4.9,1.8,5.9
		l2,5.8c0.4,1,1.6,4.4,1.8,4.5c0.2-0.1,1.2-2.1,2.3-4.7l2.1-5c1.4-3.3,2.2-5.6,2.2-6.3c0-0.4-0.4-0.9-1.5-1.1l-2-0.3
		c-0.4-0.3-0.4-1.4,0.1-1.6c2,0.1,3.9,0.2,5.6,0.2c1.6,0,3-0.1,4.8-0.2c0.5,0.3,0.6,1.2,0.1,1.6l-1.1,0.2c-2.1,0.4-3.2,2.2-5.4,6.7
		l-3.5,7.3c-2.1,4.2-7.3,15.2-10.4,22.1c-1.1,2.4-2.6,3-4,3C585.5,412.2,584.5,411.1,584.5,409.5z"/>
</g>
</svg>
